<svg xmlns="http://www.w3.org/2000/svg" width="77" height="21" viewBox="0 0 77 21">
    <path fill="#fff" fill-rule="evenodd" d="M10.563.985H8.451L6.046 6.916c-.27.664-.54 1.466-.742 2.107a37.154 37.154 0 0 0-.719-2.107L2.18.985H0l4.315 9.572v6.16h1.888V10.65l4.36-9.664zm8.089 10.145c0-2.84-.922-6.206-4.316-6.206-3.236 0-4.225 3.252-4.225 6 0 2.84.922 6.091 4.27 6.091 3.26 0 4.27-3.114 4.27-5.885zm-1.978.091c0 1.008-.068 1.878-.27 2.611-.292 1.076-.989 1.695-1.978 1.695-.809 0-1.528-.412-1.865-1.077-.382-.755-.562-2.358-.562-3.778 0-1.214.135-2.336.45-3.092.314-.756 1.033-1.214 1.865-1.214.81 0 1.55.436 1.933 1.374.315.78.427 2.062.427 3.481zm12.089-4.809l-.99-1.236c-.471.366-.92.503-1.438.503-1.033 0-1.348-.64-2.854-.64-2.158 0-3.73 1.51-3.73 3.87 0 1.488.92 2.793 2.224 3.274-1.28.481-1.753 1.122-1.753 1.947 0 1.03.697 1.626 1.91 1.626.517 0 .855.023 1.529.023 1.348 0 2.337.114 2.337 1.763 0 1.19-.741 2.084-2.315 2.084-1.37 0-2.427-.458-2.427-1.9 0-.344.09-.757.225-1.008l-1.753.137c-.135.458-.203.824-.203 1.237 0 1.557 1.102 2.908 4.27 2.908 2.81 0 4.046-1.649 4.046-3.71s-1.46-3.023-3.326-3.023h-1.708c-.45 0-.922-.091-.922-.572 0-.298.248-.642 1.08-1.1 2.719 0 4.157-1.671 4.157-3.847 0-.733-.225-1.374-.584-1.9.112.045.404.114.652.114.561 0 1.01-.092 1.573-.55zm-3.596 2.405c0 1.465-.472 2.313-1.708 2.313-1.326 0-1.798-.87-1.798-2.267 0-1.512.494-2.36 1.775-2.36 1.349 0 1.73.825 1.73 2.314zm11.841 7.03c-.629-.412-.786-.755-.786-1.923 0-.39.09-3.825.09-5.153 0-.595-.023-1.374-.225-1.97-.405-1.19-1.394-1.832-2.81-1.832-1.438 0-2.854.504-4.135 1.489l.854 1.282c.652-.664 1.955-1.282 3.057-1.282.719 0 1.168.366 1.348.824.113.275.18.825.18 1.466v.962c-.18-.023-.54-.023-.674-.023-3.214 0-5.08 1.466-5.08 4.008 0 1.603.742 3.32 3.147 3.32 1.124 0 1.91-.435 2.787-1.465.18.71.652 1.26 1.37 1.603l.877-1.306zm-2.517-1.878c-.404.985-1.28 1.626-2.202 1.626-1.057 0-1.596-.755-1.596-2.038 0-1.626 1.034-2.61 3.169-2.61.157 0 .517.022.674.045l-.045 2.977zm11.864 2.749V8.015c0-.755-.157-1.488-.629-2.06a2.583 2.583 0 0 0-2-.94c-1.057 0-2.023.412-3.057 1.466 0-.664-.18-1.168-.337-1.489l-1.663.435c.292.94.36 1.855.36 2.542v8.749h1.707V7.947c.72-.848 1.799-1.397 2.518-1.397.427 0 .809.183 1.011.458.27.366.36.755.36 1.9v7.81h1.73zm10.426-5.588c0-2.84-.921-6.206-4.315-6.206-3.237 0-4.226 3.252-4.226 6 0 2.84.922 6.091 4.27 6.091 3.26 0 4.271-3.114 4.271-5.885zm-1.978.091c0 1.008-.067 1.878-.27 2.611-.292 1.076-.988 1.695-1.977 1.695-.81 0-1.529-.412-1.866-1.077-.382-.755-.562-2.358-.562-3.778 0-1.214.135-2.336.45-3.092.315-.756 1.034-1.214 1.865-1.214.81 0 1.551.436 1.933 1.374.315.78.427 2.062.427 3.481zm10.381 2.153c0-1.718-1.371-2.68-2.72-3.16l-.899-.32c-1.146-.413-1.595-.94-1.595-1.925 0-.87.674-1.671 1.73-1.671.854 0 1.529.343 2.383.824l.651-1.351a5.594 5.594 0 0 0-3.056-.916c-2.068 0-3.529 1.443-3.529 3.55 0 1.603 1.146 2.564 2.607 3.091l.877.32c.944.344 1.753.848 1.753 1.856 0 1.122-.742 1.946-1.865 1.946-1.057 0-2.113-.389-3.08-1.099l-.674 1.351c1.034.733 2.383 1.191 3.641 1.191 2.248 0 3.776-1.42 3.776-3.687zm9.504 3.295V8.405c0-.756-.112-1.718-.584-2.336-.45-.573-1.214-.916-2.09-.916-1.236 0-2.36.526-3.192 1.442.045-.458.068-.87.068-1.397V2.725c0-.962-.09-1.97-.248-2.725l-1.73.32c.18.78.247 1.65.247 2.382v14.016h1.73V8.382c.787-1.122 1.799-1.58 2.653-1.58.472 0 .854.206 1.079.48.201.243.298.623.327 1.19h-.064v7.74c0 1.19.337 2.015 1.012 2.313.404.183.786.32 1.303.32.697 0 1.214-.16 1.82-.48l-.314-1.122c-.27.16-.427.206-.854.206-.657 0-1.01-.211-1.163-.78z"/>
</svg>
