<svg xmlns="http://www.w3.org/2000/svg" width="117" height="32" viewBox="0 0 117 32">
    <path fill="#7C5CD1" fill-rule="evenodd" d="M15.922 1.484h-3.185l-3.624 8.94c-.407 1.001-.813 2.21-1.118 3.176a56 56 0 0 0-1.084-3.176l-3.625-8.94H0l6.504 14.428v9.286H9.35V16.05l6.572-14.567zm12.19 15.291c0-4.28-1.388-9.354-6.503-9.354-4.879 0-6.37 4.902-6.37 9.044 0 4.28 1.39 9.181 6.437 9.181 4.912 0 6.437-4.694 6.437-8.87zm-2.98.138c0 1.52-.102 2.83-.407 3.935-.44 1.623-1.49 2.555-2.98 2.555-1.22 0-2.304-.622-2.813-1.623-.575-1.139-.846-3.555-.846-5.695 0-1.83.203-3.52.677-4.66.474-1.139 1.558-1.83 2.812-1.83 1.22 0 2.337.657 2.913 2.072.474 1.173.644 3.106.644 5.246zm18.22-7.248L41.863 7.8c-.711.552-1.389.76-2.168.76-1.558 0-2.032-.967-4.302-.967-3.252 0-5.624 2.278-5.624 5.833 0 2.244 1.39 4.211 3.354 4.936-1.93.725-2.642 1.692-2.642 2.934 0 1.553 1.05 2.45 2.88 2.45.779 0 1.287.035 2.303.035 2.032 0 3.523.173 3.523 2.658 0 1.795-1.118 3.141-3.49 3.141-2.066 0-3.658-.69-3.658-2.865 0-.517.136-1.139.339-1.518l-2.642.207c-.204.69-.305 1.242-.305 1.864 0 2.347 1.66 4.383 6.436 4.383 4.235 0 6.098-2.485 6.098-5.591 0-3.107-2.202-4.557-5.014-4.557h-2.574c-.678 0-1.39-.138-1.39-.863 0-.448.373-.966 1.627-1.657 4.099 0 6.267-2.52 6.267-5.798A5.023 5.023 0 0 0 40 10.32c.168.069.609.172.981.172.847 0 1.525-.138 2.372-.828zm-5.42 3.624c0 2.21-.71 3.486-2.574 3.486-1.999 0-2.71-1.311-2.71-3.417 0-2.278.745-3.555 2.676-3.555 2.033 0 2.609 1.243 2.609 3.486zm17.849 10.597c-.949-.621-1.186-1.14-1.186-2.9 0-.586.136-5.764.136-7.766 0-.897-.034-2.07-.339-2.968-.61-1.795-2.1-2.762-4.234-2.762-2.168 0-4.303.76-6.234 2.244l1.288 1.933c.982-1.001 2.947-1.933 4.607-1.933 1.084 0 1.761.552 2.032 1.242.17.415.271 1.243.271 2.21v1.45c-.27-.035-.813-.035-1.016-.035-4.844 0-7.656 2.209-7.656 6.04 0 2.417 1.118 5.005 4.743 5.005 1.694 0 2.88-.656 4.2-2.209.271 1.07.983 1.899 2.067 2.416l1.321-1.967zm-3.794-2.83c-.61 1.484-1.931 2.45-3.32 2.45-1.592 0-2.405-1.139-2.405-3.072 0-2.45 1.558-3.935 4.776-3.935.238 0 .78.035 1.017.07l-.068 4.487zm17.882 4.142V12.08c0-1.139-.237-2.244-.948-3.107a3.894 3.894 0 0 0-3.015-1.415c-1.592 0-3.05.622-4.607 2.21a5.06 5.06 0 0 0-.509-2.244l-2.506.656c.44 1.415.542 2.795.542 3.831v13.186H61.4v-13.22c1.084-1.278 2.71-2.106 3.794-2.106.644 0 1.22.276 1.525.69.406.553.542 1.14.542 2.865v11.77h2.608zm15.714-8.423c0-4.28-1.389-9.354-6.504-9.354-4.878 0-6.369 4.902-6.369 9.044 0 4.28 1.39 9.181 6.437 9.181 4.912 0 6.436-4.694 6.436-8.87zm-2.98.138c0 1.52-.102 2.83-.407 3.935-.44 1.623-1.49 2.555-2.981 2.555-1.22 0-2.304-.622-2.812-1.623-.576-1.139-.847-3.555-.847-5.695 0-1.83.203-3.52.678-4.66.474-1.139 1.558-1.83 2.811-1.83 1.22 0 2.338.657 2.914 2.072.474 1.173.643 3.106.643 5.246zm15.646 3.245c0-2.589-2.067-4.038-4.1-4.763l-1.354-.484c-1.728-.62-2.405-1.415-2.405-2.899 0-1.312 1.016-2.52 2.608-2.52 1.287 0 2.304.518 3.59 1.243l.983-2.037c-1.287-.863-2.947-1.38-4.607-1.38-3.117 0-5.318 2.174-5.318 5.35 0 2.416 1.727 3.866 3.93 4.66l1.32.483c1.423.518 2.643 1.277 2.643 2.796 0 1.691-1.118 2.934-2.812 2.934-1.592 0-3.184-.587-4.641-1.657L87.07 23.92c1.558 1.105 3.59 1.795 5.488 1.795 3.387 0 5.69-2.14 5.69-5.557zm14.325 4.967V12.668c0-1.14-.17-2.589-.88-3.52-.678-.864-1.83-1.382-3.151-1.382-1.863 0-3.557.794-4.81 2.175.067-.69.101-1.312.101-2.106V4.108c0-1.45-.135-2.969-.373-4.108l-2.608.483c.27 1.174.373 2.485.373 3.59v21.125h2.608V12.633c1.186-1.691 2.71-2.381 3.997-2.381.712 0 1.288.31 1.626.724.304.366.45.939.494 1.793h-.096v11.667c0 1.794.508 3.037 1.524 3.486.61.276 1.186.483 1.965.483 1.05 0 1.83-.242 2.744-.725l-.474-1.691c-.407.241-.644.31-1.287.31-.991 0-1.522-.317-1.753-1.174z"/>
</svg>
