<svg xmlns="http://www.w3.org/2000/svg" width="4" height="9" viewBox="0 0 4 9">
    <path fill="#7C5CD1" fill-rule="evenodd" d="M.796 2.008c.48-.341.832-.613 1.056-.816.01-.032.048-.096.112-.192.203-.299.453-.443.752-.432.384.01.65.24.8.688.075.203.123.464.144.784.01.213.016.459.016.736 0 .075-.003.157-.008.248a4.2 4.2 0 0 0-.008.168c0 3.05.005 4.768.016 5.152 0 .16-.053.299-.16.416a.518.518 0 0 1-.4.176.598.598 0 0 1-.416-.16.518.518 0 0 1-.176-.4c-.01-.405-.016-2.133-.016-5.184l.008-.176a4.67 4.67 0 0 0 .008-.256c0-.235-.005-.437-.016-.608-.213.181-.56.443-1.04.784a.577.577 0 0 1-.44.104.54.54 0 0 1-.368-.24.57.57 0 0 1-.096-.432.521.521 0 0 1 .232-.36z"/>
</svg>
