<?xml version="1.0" encoding="UTF-8"?>
<svg width="184px" height="46px" viewBox="0 0 184 46" version="1.1" xmlns="http://www.w3.org/2000/svg" xmlns:xlink="http://www.w3.org/1999/xlink">
    <!-- Generator: Sketch 47.1 (45422) - http://www.bohemiancoding.com/sketch -->
    <title>The highest percenta</title>
    <desc>Created with Sketch.</desc>
    <defs></defs>
    <g stroke="none" stroke-width="1" fill="none" fill-rule="evenodd">
        <g transform="translate(-1158.000000, -429.000000)" fill="#7C5CD1">
            <g transform="translate(697.000000, 62.000000)">
                <path d="M462.672883,367.746808 C463.40622,367.813475 464.219545,367.860141 465.112883,367.886808 C466.006221,367.913474 466.716214,367.930141 467.242883,367.936808 C467.769552,367.943474 468.619544,367.943474 469.792883,367.936808 C470.966222,367.930141 471.712881,367.926808 472.032883,367.926808 C472.232884,367.926808 472.402882,367.996807 472.542883,368.136808 C472.682884,368.276808 472.752883,368.446807 472.752883,368.646808 C472.752883,368.846809 472.682884,369.016807 472.542883,369.156808 C472.402882,369.296808 472.232884,369.366808 472.032883,369.366808 C471.686215,369.366808 471.019555,369.370141 470.032883,369.376808 C469.046211,369.383474 468.286219,369.380141 467.752883,369.366808 C467.77955,370.753481 467.73955,372.660129 467.632883,375.086808 C467.512882,377.833488 467.452883,379.760135 467.452883,380.866808 C467.452883,381.066809 467.382884,381.236807 467.242883,381.376808 C467.102882,381.516808 466.932884,381.586808 466.732883,381.586808 C466.532882,381.586808 466.362884,381.516808 466.222883,381.376808 C466.082882,381.236807 466.012883,381.066809 466.012883,380.866808 C466.012883,379.733469 466.072882,377.786821 466.192883,375.026808 C466.29955,372.586795 466.33955,370.700148 466.312883,369.366808 C464.912876,369.340141 463.659555,369.280141 462.552883,369.186808 C462.352882,369.173474 462.18955,369.090142 462.062883,368.936808 C461.936216,368.783474 461.87955,368.606809 461.892883,368.406808 C461.906216,368.206807 461.989549,368.043475 462.142883,367.916808 C462.296217,367.79014 462.472882,367.733474 462.672883,367.746808 Z M475.592883,368.026808 C475.526216,368.866812 475.512883,370.326797 475.552883,372.406808 C475.57955,373.793481 475.592883,374.820138 475.592883,375.486808 C476.192886,374.860138 476.912879,374.486808 477.752883,374.366808 C478.659554,374.246807 479.406213,374.506804 479.992883,375.146808 C480.432885,375.62681 480.752882,376.306803 480.952883,377.186808 C481.152884,378.026812 481.252883,379.366798 481.252883,381.206808 C481.252883,381.406809 481.182884,381.576807 481.042883,381.716808 C480.902882,381.856808 480.732884,381.926808 480.532883,381.926808 C480.332882,381.926808 480.162884,381.856808 480.022883,381.716808 C479.882882,381.576807 479.812883,381.406809 479.812883,381.206808 C479.812883,379.486799 479.726217,378.253478 479.552883,377.506808 C479.406216,376.866804 479.199551,376.406809 478.932883,376.126808 C478.692882,375.86014 478.366218,375.753474 477.952883,375.806808 C477.659548,375.846808 477.366218,375.956807 477.072883,376.136808 C476.779548,376.316809 476.55955,376.526806 476.412883,376.766808 C476.079548,377.28681 475.872883,377.95347 475.792883,378.766808 C475.792883,378.846808 475.77955,379.023473 475.752883,379.296808 C475.726216,379.570142 475.706216,379.783474 475.692883,379.936808 C475.67955,380.090142 475.64955,380.286806 475.602883,380.526808 C475.556216,380.766809 475.49955,380.993473 475.432883,381.206808 C475.41955,381.273475 475.392883,381.333474 475.352883,381.386808 C475.152882,381.693476 474.872885,381.786808 474.512883,381.666808 C474.419549,381.640141 474.336217,381.590141 474.262883,381.516808 C474.189549,381.443474 474.13955,381.386808 474.112883,381.346808 L474.072883,381.266808 C474.05955,381.213474 474.04955,381.166808 474.042883,381.126808 C474.036216,381.086807 474.02955,381.033475 474.022883,380.966808 C474.016216,380.900141 474.012883,380.793475 474.012883,380.646808 L474.012883,379.546808 C474.012883,378.680137 474.039549,377.780146 474.092883,376.846808 C474.146217,375.91347 474.152883,374.446818 474.112883,372.446808 C474.072883,370.380131 474.086216,368.866812 474.152883,367.906808 C474.166216,367.706807 474.249549,367.543475 474.402883,367.416808 C474.556217,367.29014 474.732882,367.233474 474.932883,367.246808 C475.132884,367.260141 475.296216,367.343474 475.422883,367.496808 C475.54955,367.650142 475.606216,367.826807 475.592883,368.026808 Z M484.312883,378.026808 C485.926224,377.973474 486.999547,377.640144 487.532883,377.026808 C487.786218,376.733473 487.942883,376.410143 488.002883,376.056808 C488.062883,375.703473 488.032884,375.413475 487.912883,375.186808 C487.659548,374.626805 487.159553,374.433473 486.412883,374.606808 C485.532879,374.806809 484.912885,375.233471 484.552883,375.886808 C484.192881,376.540144 484.112882,377.25347 484.312883,378.026808 Z M483.052883,378.806808 C482.906216,378.380139 482.81955,377.940143 482.792883,377.486808 C482.766216,377.033472 482.809549,376.580143 482.922883,376.126808 C483.036217,375.673472 483.219548,375.25681 483.472883,374.876808 C483.726218,374.496806 484.076214,374.156809 484.522883,373.856808 C484.969552,373.556806 485.49288,373.340142 486.092883,373.206808 C486.812887,373.033473 487.45288,373.08014 488.012883,373.346808 C488.572886,373.613476 488.979548,374.033471 489.232883,374.606808 C489.472884,375.113477 489.536217,375.680138 489.422883,376.306808 C489.309549,376.933477 489.039552,377.493472 488.612883,377.986808 C487.879546,378.813478 486.692891,379.293474 485.052883,379.426808 C485.399551,379.786809 485.799547,380.033474 486.252883,380.166808 C487.172888,380.433476 488.206211,380.173478 489.352883,379.386808 C489.512884,379.28014 489.689549,379.243474 489.882883,379.276808 C490.076217,379.310141 490.229549,379.41014 490.342883,379.576808 C490.456217,379.743475 490.496216,379.923473 490.462883,380.116808 C490.429549,380.310142 490.326217,380.466807 490.152883,380.586808 C488.646209,381.626813 487.21289,381.94681 485.852883,381.546808 C485.25288,381.373473 484.726219,381.080143 484.272883,380.666808 C483.819547,380.253472 483.466218,379.760144 483.212883,379.186808 C483.119549,379.08014 483.066216,378.953475 483.052883,378.806808 Z M499.312883,368.026808 C499.246216,368.866812 499.232883,370.326797 499.272883,372.406808 C499.29955,373.793481 499.312883,374.820138 499.312883,375.486808 C499.912886,374.860138 500.632879,374.486808 501.472883,374.366808 C502.379554,374.246807 503.126213,374.506804 503.712883,375.146808 C504.152885,375.62681 504.472882,376.306803 504.672883,377.186808 C504.872884,378.026812 504.972883,379.366798 504.972883,381.206808 C504.972883,381.406809 504.902884,381.576807 504.762883,381.716808 C504.622882,381.856808 504.452884,381.926808 504.252883,381.926808 C504.052882,381.926808 503.882884,381.856808 503.742883,381.716808 C503.602882,381.576807 503.532883,381.406809 503.532883,381.206808 C503.532883,379.486799 503.446217,378.253478 503.272883,377.506808 C503.126216,376.866804 502.919551,376.406809 502.652883,376.126808 C502.412882,375.86014 502.086218,375.753474 501.672883,375.806808 C501.379548,375.846808 501.086218,375.956807 500.792883,376.136808 C500.499548,376.316809 500.27955,376.526806 500.132883,376.766808 C499.799548,377.28681 499.592883,377.95347 499.512883,378.766808 C499.512883,378.846808 499.49955,379.023473 499.472883,379.296808 C499.446216,379.570142 499.426216,379.783474 499.412883,379.936808 C499.39955,380.090142 499.36955,380.286806 499.322883,380.526808 C499.276216,380.766809 499.21955,380.993473 499.152883,381.206808 C499.13955,381.273475 499.112883,381.333474 499.072883,381.386808 C498.872882,381.693476 498.592885,381.786808 498.232883,381.666808 C498.139549,381.640141 498.056217,381.590141 497.982883,381.516808 C497.909549,381.443474 497.85955,381.386808 497.832883,381.346808 L497.792883,381.266808 C497.77955,381.213474 497.76955,381.166808 497.762883,381.126808 C497.756216,381.086807 497.74955,381.033475 497.742883,380.966808 C497.736216,380.900141 497.732883,380.793475 497.732883,380.646808 L497.732883,379.546808 C497.732883,378.680137 497.759549,377.780146 497.812883,376.846808 C497.866217,375.91347 497.872883,374.446818 497.832883,372.446808 C497.792883,370.380131 497.806216,368.866812 497.872883,367.906808 C497.886216,367.706807 497.969549,367.543475 498.122883,367.416808 C498.276217,367.29014 498.452882,367.233474 498.652883,367.246808 C498.852884,367.260141 499.016216,367.343474 499.142883,367.496808 C499.26955,367.650142 499.326216,367.826807 499.312883,368.026808 Z M507.952883,374.466808 C507.952883,375.213478 507.982883,376.3368 508.042883,377.836808 C508.102883,379.336815 508.132883,380.460137 508.132883,381.206808 C508.132883,381.406809 508.062884,381.576807 507.922883,381.716808 C507.782882,381.856808 507.612884,381.926808 507.412883,381.926808 C507.212882,381.926808 507.042884,381.856808 506.902883,381.716808 C506.762882,381.576807 506.692883,381.406809 506.692883,381.206808 C506.692883,380.460137 506.662883,379.336815 506.602883,377.836808 C506.542883,376.3368 506.512883,375.213478 506.512883,374.466808 C506.512883,374.266807 506.582882,374.096808 506.722883,373.956808 C506.862884,373.816807 507.032882,373.746808 507.232883,373.746808 C507.432884,373.746808 507.602882,373.816807 507.742883,373.956808 C507.882884,374.096808 507.952883,374.266807 507.952883,374.466808 Z M507.732883,370.766808 C507.732883,370.966809 507.662884,371.136807 507.522883,371.276808 C507.382882,371.416808 507.212884,371.486808 507.012883,371.486808 C506.812882,371.486808 506.642884,371.416808 506.502883,371.276808 C506.362882,371.136807 506.292883,370.966809 506.292883,370.766808 C506.292883,370.566807 506.362882,370.396808 506.502883,370.256808 C506.642884,370.116807 506.812882,370.046808 507.012883,370.046808 C507.212884,370.046808 507.382882,370.116807 507.522883,370.256808 C507.662884,370.396808 507.732883,370.566807 507.732883,370.766808 Z M515.652883,372.766808 C515.71955,373.220143 515.872882,374.060135 516.112883,375.286808 C516.339551,376.486814 516.512882,377.460137 516.632883,378.206808 C517.006218,380.620153 517.066218,382.493468 516.812883,383.826808 C516.666216,384.653478 516.369552,385.303472 515.922883,385.776808 C515.476214,386.250143 514.92622,386.500141 514.272883,386.526808 C513.71288,386.540141 513.152886,386.386809 512.592883,386.066808 C512.03288,385.746806 511.532885,385.320144 511.092883,384.786808 C510.972882,384.626807 510.922883,384.446809 510.942883,384.246808 C510.962883,384.046807 511.049549,383.886808 511.202883,383.766808 C511.356217,383.646807 511.532882,383.596808 511.732883,383.616808 C511.932884,383.636808 512.092882,383.72014 512.212883,383.866808 C512.532885,384.26681 512.876214,384.57014 513.242883,384.776808 C513.609551,384.983475 513.939548,385.086808 514.232883,385.086808 C514.832886,385.060141 515.226215,384.546813 515.412883,383.546808 C515.612884,382.426802 515.566218,380.846818 515.272883,378.806808 C514.832881,379.300143 514.26622,379.633473 513.572883,379.806808 C512.239543,380.140143 511.16622,379.880145 510.352883,379.026808 C509.646213,378.293471 509.326216,377.366813 509.392883,376.246808 C509.472883,375.086802 509.939545,374.213477 510.792883,373.626808 C511.726221,372.973471 512.892876,372.906805 514.292883,373.426808 L514.212883,373.006808 C514.186216,372.806807 514.232882,372.626808 514.352883,372.466808 C514.472884,372.306807 514.629549,372.210141 514.822883,372.176808 C515.016217,372.143474 515.192882,372.186807 515.352883,372.306808 C515.512884,372.426808 515.612883,372.58014 515.652883,372.766808 Z M513.872883,374.806808 C512.912878,374.420139 512.159552,374.420139 511.612883,374.806808 C511.146214,375.126809 510.886217,375.633471 510.832883,376.326808 C510.792883,377.033478 510.979548,377.600139 511.392883,378.026808 C511.819552,378.480143 512.426212,378.606809 513.212883,378.406808 C513.639552,378.30014 513.972882,378.106809 514.212883,377.826808 C514.452884,377.546806 514.672882,377.140144 514.872883,376.606808 C514.872883,376.593474 514.87955,376.580141 514.892883,376.566808 L514.532883,374.726808 C514.319549,374.860142 514.099551,374.886808 513.872883,374.806808 Z M519.812883,368.026808 C519.746216,368.866812 519.732883,370.326797 519.772883,372.406808 C519.79955,373.793481 519.812883,374.820138 519.812883,375.486808 C520.412886,374.860138 521.132879,374.486808 521.972883,374.366808 C522.879554,374.246807 523.626213,374.506804 524.212883,375.146808 C524.652885,375.62681 524.972882,376.306803 525.172883,377.186808 C525.372884,378.026812 525.472883,379.366798 525.472883,381.206808 C525.472883,381.406809 525.402884,381.576807 525.262883,381.716808 C525.122882,381.856808 524.952884,381.926808 524.752883,381.926808 C524.552882,381.926808 524.382884,381.856808 524.242883,381.716808 C524.102882,381.576807 524.032883,381.406809 524.032883,381.206808 C524.032883,379.486799 523.946217,378.253478 523.772883,377.506808 C523.626216,376.866804 523.419551,376.406809 523.152883,376.126808 C522.912882,375.86014 522.586218,375.753474 522.172883,375.806808 C521.879548,375.846808 521.586218,375.956807 521.292883,376.136808 C520.999548,376.316809 520.77955,376.526806 520.632883,376.766808 C520.299548,377.28681 520.092883,377.95347 520.012883,378.766808 C520.012883,378.846808 519.99955,379.023473 519.972883,379.296808 C519.946216,379.570142 519.926216,379.783474 519.912883,379.936808 C519.89955,380.090142 519.86955,380.286806 519.822883,380.526808 C519.776216,380.766809 519.71955,380.993473 519.652883,381.206808 C519.63955,381.273475 519.612883,381.333474 519.572883,381.386808 C519.372882,381.693476 519.092885,381.786808 518.732883,381.666808 C518.639549,381.640141 518.556217,381.590141 518.482883,381.516808 C518.409549,381.443474 518.35955,381.386808 518.332883,381.346808 L518.292883,381.266808 C518.27955,381.213474 518.26955,381.166808 518.262883,381.126808 C518.256216,381.086807 518.24955,381.033475 518.242883,380.966808 C518.236216,380.900141 518.232883,380.793475 518.232883,380.646808 L518.232883,379.546808 C518.232883,378.680137 518.259549,377.780146 518.312883,376.846808 C518.366217,375.91347 518.372883,374.446818 518.332883,372.446808 C518.292883,370.380131 518.306216,368.866812 518.372883,367.906808 C518.386216,367.706807 518.469549,367.543475 518.622883,367.416808 C518.776217,367.29014 518.952882,367.233474 519.152883,367.246808 C519.352884,367.260141 519.516216,367.343474 519.642883,367.496808 C519.76955,367.650142 519.826216,367.826807 519.812883,368.026808 Z M528.532883,378.026808 C530.146224,377.973474 531.219547,377.640144 531.752883,377.026808 C532.006218,376.733473 532.162883,376.410143 532.222883,376.056808 C532.282883,375.703473 532.252884,375.413475 532.132883,375.186808 C531.879548,374.626805 531.379553,374.433473 530.632883,374.606808 C529.752879,374.806809 529.132885,375.233471 528.772883,375.886808 C528.412881,376.540144 528.332882,377.25347 528.532883,378.026808 Z M527.272883,378.806808 C527.126216,378.380139 527.03955,377.940143 527.012883,377.486808 C526.986216,377.033472 527.029549,376.580143 527.142883,376.126808 C527.256217,375.673472 527.439548,375.25681 527.692883,374.876808 C527.946218,374.496806 528.296214,374.156809 528.742883,373.856808 C529.189552,373.556806 529.71288,373.340142 530.312883,373.206808 C531.032887,373.033473 531.67288,373.08014 532.232883,373.346808 C532.792886,373.613476 533.199548,374.033471 533.452883,374.606808 C533.692884,375.113477 533.756217,375.680138 533.642883,376.306808 C533.529549,376.933477 533.259552,377.493472 532.832883,377.986808 C532.099546,378.813478 530.912891,379.293474 529.272883,379.426808 C529.619551,379.786809 530.019547,380.033474 530.472883,380.166808 C531.392888,380.433476 532.426211,380.173478 533.572883,379.386808 C533.732884,379.28014 533.909549,379.243474 534.102883,379.276808 C534.296217,379.310141 534.449549,379.41014 534.562883,379.576808 C534.676217,379.743475 534.716216,379.923473 534.682883,380.116808 C534.649549,380.310142 534.546217,380.466807 534.372883,380.586808 C532.866209,381.626813 531.43289,381.94681 530.072883,381.546808 C529.47288,381.373473 528.946219,381.080143 528.492883,380.666808 C528.039547,380.253472 527.686218,379.760144 527.432883,379.186808 C527.339549,379.08014 527.286216,378.953475 527.272883,378.806808 Z M541.072883,374.026808 C540.926216,374.000141 540.77955,373.966808 540.632883,373.926808 L540.272883,373.846808 C540.179549,373.833474 540.086217,373.826808 539.992883,373.826808 C539.832882,373.826808 539.622884,373.893474 539.362883,374.026808 C539.102882,374.160142 538.872884,374.34014 538.672883,374.566808 C538.259548,375.00681 538.132882,375.380139 538.292883,375.686808 C538.412884,375.873475 538.799546,376.073473 539.452883,376.286808 C539.679551,376.353475 539.842882,376.406807 539.942883,376.446808 C540.042883,376.486808 540.206215,376.56014 540.432883,376.666808 C540.659551,376.773475 540.849549,376.903474 541.002883,377.056808 C541.156217,377.210142 541.279549,377.386807 541.372883,377.586808 C541.639551,378.213477 541.716217,378.776805 541.602883,379.276808 C541.489549,379.77681 541.246218,380.220139 540.872883,380.606808 C540.512881,380.966809 540.099552,381.22014 539.632883,381.366808 C539.166214,381.513475 538.679552,381.506808 538.172883,381.346808 C537.932882,381.253474 537.679551,381.100142 537.412883,380.886808 C537.386216,380.873474 537.306217,380.820141 537.172883,380.726808 L536.892883,380.486808 C536.719549,380.366807 536.616216,380.210142 536.582883,380.016808 C536.549549,379.823473 536.589549,379.643475 536.702883,379.476808 C536.816217,379.31014 536.969549,379.210141 537.162883,379.176808 C537.356217,379.143474 537.532882,379.18014 537.692883,379.286808 C537.706216,379.300141 537.906214,379.453473 538.292883,379.746808 C538.452884,379.866808 538.586216,379.946807 538.692883,379.986808 C538.83955,380.040141 539.019549,380.036808 539.232883,379.976808 C539.446217,379.916807 539.646215,379.786809 539.832883,379.586808 C540.246218,379.173472 540.332884,378.720143 540.092883,378.226808 C539.999549,378.04014 539.639553,377.846809 539.012883,377.646808 C538.986216,377.646808 538.952883,377.640141 538.912883,377.626808 C538.646215,377.533474 538.42955,377.453475 538.262883,377.386808 C538.096215,377.320141 537.886218,377.196809 537.632883,377.016808 C537.379548,376.836807 537.186217,376.620142 537.052883,376.366808 C536.839549,376.046806 536.752883,375.703476 536.792883,375.336808 C536.832883,374.970139 536.922882,374.650142 537.062883,374.376808 C537.202884,374.103473 537.386215,373.846809 537.612883,373.606808 C537.932885,373.246806 538.309547,372.953475 538.742883,372.726808 C539.176218,372.50014 539.592881,372.386808 539.992883,372.386808 C540.13955,372.386808 540.302882,372.403474 540.482883,372.436808 C540.662884,372.470141 540.839549,372.506807 541.012883,372.546808 C541.186217,372.586808 541.286216,372.613474 541.312883,372.626808 C541.512884,372.653474 541.669549,372.75014 541.782883,372.916808 C541.896217,373.083475 541.936216,373.263473 541.902883,373.456808 C541.869549,373.650142 541.76955,373.803474 541.602883,373.916808 C541.436215,374.030142 541.259551,374.066808 541.072883,374.026808 Z M545.192883,368.006808 C545.232883,368.246809 545.246216,368.706804 545.232883,369.386808 C545.21955,370.066811 545.206216,370.546806 545.192883,370.826808 L545.112883,372.286808 L545.052883,373.766808 C545.03955,374.020142 545.026216,374.253473 545.012883,374.466808 C545.799554,374.400141 546.539546,374.320141 547.232883,374.226808 C547.419551,374.200141 547.592882,374.25014 547.752883,374.376808 C547.912884,374.503475 548.006216,374.663473 548.032883,374.856808 C548.05955,375.050142 548.00955,375.226807 547.882883,375.386808 C547.756216,375.546808 547.592884,375.640141 547.392883,375.666808 C546.659546,375.746808 545.859554,375.826807 544.992883,375.906808 C545.006216,377.200147 545.119549,378.27347 545.332883,379.126808 C545.612884,380.260147 546.03288,380.826808 546.592883,380.826808 C546.872884,380.813474 547.196214,380.683476 547.562883,380.436808 C547.929551,380.19014 548.292881,379.820143 548.652883,379.326808 C548.772884,379.166807 548.932882,379.073474 549.132883,379.046808 C549.332884,379.020141 549.512882,379.066807 549.672883,379.186808 C549.832884,379.306808 549.926216,379.466807 549.952883,379.666808 C549.97955,379.866809 549.932884,380.046807 549.812883,380.206808 C548.786211,381.553481 547.726222,382.240141 546.632883,382.266808 C545.966213,382.280141 545.402885,382.040143 544.942883,381.546808 C544.482881,381.053472 544.146217,380.366812 543.932883,379.486808 C543.706215,378.526803 543.57955,377.380148 543.552883,376.046808 L542.472883,376.126808 C542.272882,376.140141 542.096217,376.083475 541.942883,375.956808 C541.789549,375.83014 541.706216,375.666809 541.692883,375.466808 C541.67955,375.266807 541.736216,375.090142 541.862883,374.936808 C541.98955,374.783474 542.152882,374.700141 542.352883,374.686808 L543.572883,374.586808 C543.586216,374.413473 543.59955,374.120143 543.612883,373.706808 C543.626216,373.400139 543.646216,372.900144 543.672883,372.206808 L543.752883,370.766808 C543.766216,370.50014 543.77955,370.043478 543.792883,369.396808 C543.806216,368.750138 543.792883,368.313475 543.752883,368.086808 C543.73955,367.886807 543.799549,367.713475 543.932883,367.566808 C544.066217,367.42014 544.232882,367.340141 544.432883,367.326808 C544.632884,367.313474 544.806216,367.373474 544.952883,367.506808 C545.09955,367.640142 545.17955,367.806807 545.192883,368.006808 Z M559.212883,372.886808 C559.226216,373.873479 559.252883,375.033468 559.292883,376.366808 C560.292888,376.540142 561.119546,376.473476 561.772883,376.166808 C562.652887,375.753472 563.252881,375.280144 563.572883,374.746808 C563.892885,374.213472 563.992884,373.740143 563.872883,373.326808 C563.752882,372.926806 563.422886,372.613475 562.882883,372.386808 C562.34288,372.16014 561.606221,372.146807 560.672883,372.346808 C560.03288,372.493475 559.546218,372.673473 559.212883,372.886808 Z M558.312883,371.766808 C558.819552,371.406806 559.499545,371.133475 560.352883,370.946808 C561.566222,370.68014 562.622878,370.726806 563.522883,371.086808 C564.422887,371.446809 564.999548,372.05347 565.252883,372.906808 C565.506218,373.746812 565.372886,374.586803 564.852883,375.426808 C564.33288,376.266812 563.506222,376.953472 562.372883,377.486808 C561.506212,377.88681 560.506222,378.006808 559.372883,377.846808 C559.506217,380.95349 559.572883,383.160134 559.572883,384.466808 C559.572883,384.666809 559.502884,384.836807 559.362883,384.976808 C559.222882,385.116808 559.052884,385.186808 558.852883,385.186808 C558.652882,385.186808 558.482884,385.116808 558.342883,384.976808 C558.202882,384.836807 558.132883,384.666809 558.132883,384.466808 C558.132883,383.146801 558.076217,381.25682 557.962883,378.796808 C557.849549,376.336795 557.786216,374.566813 557.772883,373.486808 C557.732883,373.460141 557.69955,373.426808 557.672883,373.386808 C557.526216,373.253474 557.446216,373.086809 557.432883,372.886808 C557.41955,372.686807 557.486216,372.520142 557.632883,372.386808 C557.69955,372.306807 557.772883,372.226808 557.852883,372.146808 C557.946217,371.946807 558.099549,371.820141 558.312883,371.766808 Z M568.432883,378.026808 C570.046224,377.973474 571.119547,377.640144 571.652883,377.026808 C571.906218,376.733473 572.062883,376.410143 572.122883,376.056808 C572.182883,375.703473 572.152884,375.413475 572.032883,375.186808 C571.779548,374.626805 571.279553,374.433473 570.532883,374.606808 C569.652879,374.806809 569.032885,375.233471 568.672883,375.886808 C568.312881,376.540144 568.232882,377.25347 568.432883,378.026808 Z M567.172883,378.806808 C567.026216,378.380139 566.93955,377.940143 566.912883,377.486808 C566.886216,377.033472 566.929549,376.580143 567.042883,376.126808 C567.156217,375.673472 567.339548,375.25681 567.592883,374.876808 C567.846218,374.496806 568.196214,374.156809 568.642883,373.856808 C569.089552,373.556806 569.61288,373.340142 570.212883,373.206808 C570.932887,373.033473 571.57288,373.08014 572.132883,373.346808 C572.692886,373.613476 573.099548,374.033471 573.352883,374.606808 C573.592884,375.113477 573.656217,375.680138 573.542883,376.306808 C573.429549,376.933477 573.159552,377.493472 572.732883,377.986808 C571.999546,378.813478 570.812891,379.293474 569.172883,379.426808 C569.519551,379.786809 569.919547,380.033474 570.372883,380.166808 C571.292888,380.433476 572.326211,380.173478 573.472883,379.386808 C573.632884,379.28014 573.809549,379.243474 574.002883,379.276808 C574.196217,379.310141 574.349549,379.41014 574.462883,379.576808 C574.576217,379.743475 574.616216,379.923473 574.582883,380.116808 C574.549549,380.310142 574.446217,380.466807 574.272883,380.586808 C572.766209,381.626813 571.33289,381.94681 569.972883,381.546808 C569.37288,381.373473 568.846219,381.080143 568.392883,380.666808 C567.939547,380.253472 567.586218,379.760144 567.332883,379.186808 C567.239549,379.08014 567.186216,378.953475 567.172883,378.806808 Z M577.572883,375.706808 C577.906218,375.053471 578.286214,374.500143 578.712883,374.046808 C579.766222,372.913469 580.859544,372.573472 581.992883,373.026808 C582.219551,373.106808 582.459548,373.253473 582.712883,373.466808 C582.726216,373.480141 582.786216,373.536807 582.892883,373.636808 C582.99955,373.736808 583.086216,373.806807 583.152883,373.846808 C583.312884,373.966808 583.406216,374.126807 583.432883,374.326808 C583.45955,374.526809 583.412884,374.706807 583.292883,374.866808 C583.172882,375.026808 583.012884,375.120141 582.812883,375.146808 C582.612882,375.173474 582.432884,375.126808 582.272883,375.006808 C582.25955,374.993474 582.092885,374.846809 581.772883,374.566808 C581.652882,374.46014 581.552883,374.386808 581.472883,374.346808 C580.95288,374.146807 580.386219,374.373471 579.772883,375.026808 C579.199547,375.640144 578.772884,376.35347 578.492883,377.166808 C578.399549,377.446809 578.326217,377.716806 578.272883,377.976808 C578.219549,378.236809 578.186216,378.436807 578.172883,378.576808 C578.15955,378.716808 578.14955,378.980139 578.142883,379.366808 C578.136216,379.753476 578.126216,380.053473 578.112883,380.266808 C578.112883,380.293474 578.116216,380.330141 578.122883,380.376808 C578.12955,380.423475 578.136216,380.493474 578.142883,380.586808 C578.14955,380.680141 578.152883,380.773474 578.152883,380.866808 C578.166216,381.080142 578.15955,381.246807 578.132883,381.366808 C578.039549,381.700143 577.832885,381.886807 577.512883,381.926808 C577.259548,381.966808 577.032884,381.886809 576.832883,381.686808 C576.552882,381.42014 576.452883,381.053477 576.532883,380.586808 C576.546216,380.520141 576.55955,380.460141 576.572883,380.406808 C576.586216,380.353474 576.596216,380.316808 576.602883,380.296808 C576.60955,380.276808 576.612883,380.260141 576.612883,380.246808 L576.612883,380.186808 C576.59955,379.626805 576.572883,379.206809 576.532883,378.926808 C576.386216,377.553467 576.226217,376.380146 576.052883,375.406808 C575.879549,374.433469 575.632885,373.493479 575.312883,372.586808 C575.246216,372.40014 575.256216,372.216809 575.342883,372.036808 C575.42955,371.856807 575.566215,371.733475 575.752883,371.666808 C575.939551,371.600141 576.122882,371.610141 576.302883,371.696808 C576.482884,371.783475 576.606216,371.92014 576.672883,372.106808 C577.046218,373.160146 577.346215,374.360134 577.572883,375.706808 Z M591.152883,374.286808 L591.152883,373.746808 C591.152883,373.626807 591.146216,373.546808 591.132883,373.506808 C591.026216,373.200139 590.712886,373.053474 590.192883,373.066808 C589.59288,373.093474 589.099552,373.266806 588.712883,373.586808 C588.539549,373.720142 588.286218,374.020139 587.952883,374.486808 C586.792877,376.100149 586.326215,377.553468 586.552883,378.846808 C586.686217,379.553478 587.172879,380.046806 588.012883,380.326808 C588.412885,380.460142 588.826214,380.516808 589.252883,380.496808 C589.679552,380.476808 590.059548,380.386808 590.392883,380.226808 C590.472883,380.186807 590.546216,380.143475 590.612883,380.096808 C590.67955,380.050141 590.732883,380.006808 590.772883,379.966808 C590.812883,379.926807 590.866216,379.866808 590.932883,379.786808 C590.99955,379.706807 591.046216,379.646808 591.072883,379.606808 L591.272883,379.326808 C591.352883,379.206807 591.419549,379.113475 591.472883,379.046808 C591.57955,378.886807 591.732882,378.790141 591.932883,378.756808 C592.132884,378.723474 592.312882,378.763474 592.472883,378.876808 C592.632884,378.990142 592.729549,379.146807 592.762883,379.346808 C592.796216,379.546809 592.752884,379.726807 592.632883,379.886808 C592.632883,379.900141 592.56955,380.00014 592.442883,380.186808 C592.316216,380.373475 592.226217,380.500141 592.172883,380.566808 C592.119549,380.633475 592.026217,380.736807 591.892883,380.876808 C591.759549,381.016808 591.626217,381.136807 591.492883,381.236808 C591.359549,381.336808 591.206217,381.426807 591.032883,381.506808 C590.526214,381.760142 589.956219,381.903474 589.322883,381.936808 C588.689546,381.970141 588.099552,381.886809 587.552883,381.686808 C586.939547,381.486807 586.412885,381.16681 585.972883,380.726808 C585.532881,380.286805 585.25955,379.740144 585.152883,379.086808 C584.846215,377.406799 585.392876,375.593484 586.792883,373.646808 C587.192885,373.086805 587.526215,372.693475 587.792883,372.466808 C588.072884,372.24014 588.426214,372.050142 588.852883,371.896808 C589.279552,371.743474 589.706214,371.660141 590.132883,371.646808 C590.639552,371.620141 591.112881,371.713473 591.552883,371.926808 C591.992885,372.140142 592.306215,372.506805 592.492883,373.026808 C592.55955,373.226809 592.592883,373.466806 592.592883,373.746808 L592.592883,374.206808 C592.606216,374.406809 592.546217,374.58014 592.412883,374.726808 C592.279549,374.873475 592.112884,374.953474 591.912883,374.966808 C591.712882,374.980141 591.53955,374.920142 591.392883,374.786808 C591.246216,374.653474 591.166216,374.486809 591.152883,374.286808 Z M595.832883,378.026808 C597.446224,377.973474 598.519547,377.640144 599.052883,377.026808 C599.306218,376.733473 599.462883,376.410143 599.522883,376.056808 C599.582883,375.703473 599.552884,375.413475 599.432883,375.186808 C599.179548,374.626805 598.679553,374.433473 597.932883,374.606808 C597.052879,374.806809 596.432885,375.233471 596.072883,375.886808 C595.712881,376.540144 595.632882,377.25347 595.832883,378.026808 Z M594.572883,378.806808 C594.426216,378.380139 594.33955,377.940143 594.312883,377.486808 C594.286216,377.033472 594.329549,376.580143 594.442883,376.126808 C594.556217,375.673472 594.739548,375.25681 594.992883,374.876808 C595.246218,374.496806 595.596214,374.156809 596.042883,373.856808 C596.489552,373.556806 597.01288,373.340142 597.612883,373.206808 C598.332887,373.033473 598.97288,373.08014 599.532883,373.346808 C600.092886,373.613476 600.499548,374.033471 600.752883,374.606808 C600.992884,375.113477 601.056217,375.680138 600.942883,376.306808 C600.829549,376.933477 600.559552,377.493472 600.132883,377.986808 C599.399546,378.813478 598.212891,379.293474 596.572883,379.426808 C596.919551,379.786809 597.319547,380.033474 597.772883,380.166808 C598.692888,380.433476 599.726211,380.173478 600.872883,379.386808 C601.032884,379.28014 601.209549,379.243474 601.402883,379.276808 C601.596217,379.310141 601.749549,379.41014 601.862883,379.576808 C601.976217,379.743475 602.016216,379.923473 601.982883,380.116808 C601.949549,380.310142 601.846217,380.466807 601.672883,380.586808 C600.166209,381.626813 598.73289,381.94681 597.372883,381.546808 C596.77288,381.373473 596.246219,381.080143 595.792883,380.666808 C595.339547,380.253472 594.986218,379.760144 594.732883,379.186808 C594.639549,379.08014 594.586216,378.953475 594.572883,378.806808 Z M605.012883,375.906808 C605.586219,375.040137 606.266212,374.526808 607.052883,374.366808 C607.70622,374.233474 608.29288,374.380139 608.812883,374.806808 C609.306219,375.20681 609.679548,375.826803 609.932883,376.666808 C610.279551,377.840147 610.332884,379.320132 610.092883,381.106808 C610.066216,381.306809 609.972884,381.466807 609.812883,381.586808 C609.652882,381.706808 609.472884,381.753474 609.272883,381.726808 C609.072882,381.700141 608.912884,381.606808 608.792883,381.446808 C608.672882,381.286807 608.626216,381.106809 608.652883,380.906808 C608.866217,379.320133 608.826218,378.040146 608.532883,377.066808 C608.372882,376.520138 608.159551,376.140142 607.892883,375.926808 C607.732882,375.793474 607.552884,375.746807 607.352883,375.786808 C607.086215,375.840141 606.812884,376.013473 606.532883,376.306808 C606.252882,376.600142 606.019551,376.993472 605.832883,377.486808 C605.699549,377.820143 605.616216,378.190139 605.582883,378.596808 C605.549549,379.003476 605.542883,379.396806 605.562883,379.776808 C605.582883,380.15681 605.572883,380.613472 605.532883,381.146808 C605.532883,381.200141 605.526216,381.240141 605.512883,381.266808 C605.512883,381.333475 605.506216,381.400141 605.492883,381.466808 C605.466216,381.533475 605.432883,381.593474 605.392883,381.646808 C605.192882,381.926809 604.926218,382.020141 604.592883,381.926808 C604.499549,381.900141 604.412883,381.853475 604.332883,381.786808 C604.252883,381.720141 604.19955,381.660141 604.172883,381.606808 L604.132883,381.526808 L604.092883,381.406808 L604.072883,381.266808 L604.072883,380.586808 C604.086216,379.840137 604.086216,379.353475 604.072883,379.126808 C603.992883,377.846801 603.732885,376.493481 603.292883,375.066808 C603.226216,374.88014 603.239549,374.696809 603.332883,374.516808 C603.426217,374.336807 603.566215,374.216808 603.752883,374.156808 C603.939551,374.096807 604.122882,374.113474 604.302883,374.206808 C604.482884,374.300141 604.599549,374.44014 604.652883,374.626808 C604.79955,375.06681 604.919549,375.493472 605.012883,375.906808 Z M613.512883,368.006808 C613.552883,368.246809 613.566216,368.706804 613.552883,369.386808 C613.53955,370.066811 613.526216,370.546806 613.512883,370.826808 L613.432883,372.286808 L613.372883,373.766808 C613.35955,374.020142 613.346216,374.253473 613.332883,374.466808 C614.119554,374.400141 614.859546,374.320141 615.552883,374.226808 C615.739551,374.200141 615.912882,374.25014 616.072883,374.376808 C616.232884,374.503475 616.326216,374.663473 616.352883,374.856808 C616.37955,375.050142 616.32955,375.226807 616.202883,375.386808 C616.076216,375.546808 615.912884,375.640141 615.712883,375.666808 C614.979546,375.746808 614.179554,375.826807 613.312883,375.906808 C613.326216,377.200147 613.439549,378.27347 613.652883,379.126808 C613.932884,380.260147 614.35288,380.826808 614.912883,380.826808 C615.192884,380.813474 615.516214,380.683476 615.882883,380.436808 C616.249551,380.19014 616.612881,379.820143 616.972883,379.326808 C617.092884,379.166807 617.252882,379.073474 617.452883,379.046808 C617.652884,379.020141 617.832882,379.066807 617.992883,379.186808 C618.152884,379.306808 618.246216,379.466807 618.272883,379.666808 C618.29955,379.866809 618.252884,380.046807 618.132883,380.206808 C617.106211,381.553481 616.046222,382.240141 614.952883,382.266808 C614.286213,382.280141 613.722885,382.040143 613.262883,381.546808 C612.802881,381.053472 612.466217,380.366812 612.252883,379.486808 C612.026215,378.526803 611.89955,377.380148 611.872883,376.046808 L610.792883,376.126808 C610.592882,376.140141 610.416217,376.083475 610.262883,375.956808 C610.109549,375.83014 610.026216,375.666809 610.012883,375.466808 C609.99955,375.266807 610.056216,375.090142 610.182883,374.936808 C610.30955,374.783474 610.472882,374.700141 610.672883,374.686808 L611.892883,374.586808 C611.906216,374.413473 611.91955,374.120143 611.932883,373.706808 C611.946216,373.400139 611.966216,372.900144 611.992883,372.206808 L612.072883,370.766808 C612.086216,370.50014 612.09955,370.043478 612.112883,369.396808 C612.126216,368.750138 612.112883,368.313475 612.072883,368.086808 C612.05955,367.886807 612.119549,367.713475 612.252883,367.566808 C612.386217,367.42014 612.552882,367.340141 612.752883,367.326808 C612.952884,367.313474 613.126216,367.373474 613.272883,367.506808 C613.41955,367.640142 613.49955,367.806807 613.512883,368.006808 Z M625.032883,379.386808 C625.112883,379.000139 625.179549,378.646809 625.232883,378.326808 C624.832881,378.033473 624.419552,377.836808 623.992883,377.736808 C623.566214,377.636807 623.192885,377.613474 622.872883,377.666808 C622.552881,377.720141 622.259551,377.826807 621.992883,377.986808 C621.632881,378.200142 621.41955,378.446806 621.352883,378.726808 C621.299549,378.966809 621.392882,379.206806 621.632883,379.446808 C622.099552,379.860143 622.58288,380.116807 623.082883,380.216808 C623.582885,380.316808 623.979548,380.280142 624.272883,380.106808 C624.592885,379.946807 624.846215,379.706809 625.032883,379.386808 Z M622.712883,370.806808 C622.726216,370.806808 622.822882,370.816808 623.002883,370.836808 C623.182884,370.856808 623.292883,370.873474 623.332883,370.886808 L623.632883,370.926808 C623.806217,370.953474 623.929549,370.980141 624.002883,371.006808 C624.076217,371.033474 624.186216,371.070141 624.332883,371.116808 C624.47955,371.163475 624.602882,371.213474 624.702883,371.266808 C624.802883,371.320141 624.912882,371.383474 625.032883,371.456808 C625.152884,371.530141 625.266216,371.613474 625.372883,371.706808 C626.479555,372.666812 626.97955,374.273463 626.872883,376.526808 C626.846216,376.96681 626.79955,377.440138 626.732883,377.946808 C626.772883,378.653478 626.666218,379.293471 626.412883,379.866808 C626.359549,380.066809 626.252884,380.533471 626.092883,381.266808 C626.052883,381.453475 625.94955,381.60014 625.782883,381.706808 C625.616215,381.813475 625.432884,381.846808 625.232883,381.806808 C625.019549,381.766807 624.866217,381.653475 624.772883,381.466808 C624.146213,381.733476 623.462887,381.783475 622.722883,381.616808 C621.982879,381.45014 621.299553,381.073477 620.672883,380.486808 C620.006213,379.886805 619.766215,379.186812 619.952883,378.386808 C620.112884,377.706804 620.552879,377.153476 621.272883,376.726808 C621.846219,376.393473 622.482879,376.220141 623.182883,376.206808 C623.882886,376.193474 624.626212,376.373472 625.412883,376.746808 C625.426216,376.653474 625.432883,376.553475 625.432883,376.446808 C625.512883,374.673465 625.172887,373.453478 624.412883,372.786808 C624.266216,372.666807 624.089551,372.570141 623.882883,372.496808 C623.676215,372.423474 623.502884,372.373474 623.362883,372.346808 C623.222882,372.320141 622.952885,372.286808 622.552883,372.246808 C622.352882,372.220141 622.18955,372.130142 622.062883,371.976808 C621.936216,371.823474 621.886216,371.646809 621.912883,371.446808 C621.93955,371.246807 622.029549,371.083475 622.182883,370.956808 C622.336217,370.83014 622.512882,370.780141 622.712883,370.806808 Z M634.392883,372.766808 C634.45955,373.220143 634.612882,374.060135 634.852883,375.286808 C635.079551,376.486814 635.252882,377.460137 635.372883,378.206808 C635.746218,380.620153 635.806218,382.493468 635.552883,383.826808 C635.406216,384.653478 635.109552,385.303472 634.662883,385.776808 C634.216214,386.250143 633.66622,386.500141 633.012883,386.526808 C632.45288,386.540141 631.892886,386.386809 631.332883,386.066808 C630.77288,385.746806 630.272885,385.320144 629.832883,384.786808 C629.712882,384.626807 629.662883,384.446809 629.682883,384.246808 C629.702883,384.046807 629.789549,383.886808 629.942883,383.766808 C630.096217,383.646807 630.272882,383.596808 630.472883,383.616808 C630.672884,383.636808 630.832882,383.72014 630.952883,383.866808 C631.272885,384.26681 631.616214,384.57014 631.982883,384.776808 C632.349551,384.983475 632.679548,385.086808 632.972883,385.086808 C633.572886,385.060141 633.966215,384.546813 634.152883,383.546808 C634.352884,382.426802 634.306218,380.846818 634.012883,378.806808 C633.572881,379.300143 633.00622,379.633473 632.312883,379.806808 C630.979543,380.140143 629.90622,379.880145 629.092883,379.026808 C628.386213,378.293471 628.066216,377.366813 628.132883,376.246808 C628.212883,375.086802 628.679545,374.213477 629.532883,373.626808 C630.466221,372.973471 631.632876,372.906805 633.032883,373.426808 L632.952883,373.006808 C632.926216,372.806807 632.972882,372.626808 633.092883,372.466808 C633.212884,372.306807 633.369549,372.210141 633.562883,372.176808 C633.756217,372.143474 633.932882,372.186807 634.092883,372.306808 C634.252884,372.426808 634.352883,372.58014 634.392883,372.766808 Z M632.612883,374.806808 C631.652878,374.420139 630.899552,374.420139 630.352883,374.806808 C629.886214,375.126809 629.626217,375.633471 629.572883,376.326808 C629.532883,377.033478 629.719548,377.600139 630.132883,378.026808 C630.559552,378.480143 631.166212,378.606809 631.952883,378.406808 C632.379552,378.30014 632.712882,378.106809 632.952883,377.826808 C633.192884,377.546806 633.412882,377.140144 633.612883,376.606808 C633.612883,376.593474 633.61955,376.580141 633.632883,376.566808 L633.272883,374.726808 C633.059549,374.860142 632.839551,374.886808 632.612883,374.806808 Z M638.772883,378.026808 C640.386224,377.973474 641.459547,377.640144 641.992883,377.026808 C642.246218,376.733473 642.402883,376.410143 642.462883,376.056808 C642.522883,375.703473 642.492884,375.413475 642.372883,375.186808 C642.119548,374.626805 641.619553,374.433473 640.872883,374.606808 C639.992879,374.806809 639.372885,375.233471 639.012883,375.886808 C638.652881,376.540144 638.572882,377.25347 638.772883,378.026808 Z M637.512883,378.806808 C637.366216,378.380139 637.27955,377.940143 637.252883,377.486808 C637.226216,377.033472 637.269549,376.580143 637.382883,376.126808 C637.496217,375.673472 637.679548,375.25681 637.932883,374.876808 C638.186218,374.496806 638.536214,374.156809 638.982883,373.856808 C639.429552,373.556806 639.95288,373.340142 640.552883,373.206808 C641.272887,373.033473 641.91288,373.08014 642.472883,373.346808 C643.032886,373.613476 643.439548,374.033471 643.692883,374.606808 C643.932884,375.113477 643.996217,375.680138 643.882883,376.306808 C643.769549,376.933477 643.499552,377.493472 643.072883,377.986808 C642.339546,378.813478 641.152891,379.293474 639.512883,379.426808 C639.859551,379.786809 640.259547,380.033474 640.712883,380.166808 C641.632888,380.433476 642.666211,380.173478 643.812883,379.386808 C643.972884,379.28014 644.149549,379.243474 644.342883,379.276808 C644.536217,379.310141 644.689549,379.41014 644.802883,379.576808 C644.916217,379.743475 644.956216,379.923473 644.922883,380.116808 C644.889549,380.310142 644.786217,380.466807 644.612883,380.586808 C643.106209,381.626813 641.67289,381.94681 640.312883,381.546808 C639.71288,381.373473 639.186219,381.080143 638.732883,380.666808 C638.279547,380.253472 637.926218,379.760144 637.672883,379.186808 C637.579549,379.08014 637.526216,378.953475 637.512883,378.806808 Z M469.272883,402.466808 C468.246211,402.386807 467.419553,402.633471 466.792883,403.206808 C466.179547,403.780144 465.83955,404.47347 465.772883,405.286808 C465.706216,406.020145 465.879548,406.573472 466.292883,406.946808 C466.772885,407.360143 467.479545,407.420142 468.412883,407.126808 C468.959552,406.953473 469.339549,406.713476 469.552883,406.406808 C469.712884,406.18014 469.899549,405.673478 470.112883,404.886808 C470.13955,404.793474 470.186216,404.713475 470.252883,404.646808 C470.252883,403.700136 470.282883,402.090152 470.342883,399.816808 C470.402883,397.543463 470.432883,395.79348 470.432883,394.566808 C470.432883,394.366807 470.502882,394.196808 470.642883,394.056808 C470.782884,393.916807 470.952882,393.846808 471.152883,393.846808 C471.352884,393.846808 471.522882,393.916807 471.662883,394.056808 C471.802884,394.196808 471.872883,394.366807 471.872883,394.566808 C471.872883,395.660146 471.832883,397.786792 471.752883,400.946808 C471.672883,404.106823 471.659549,406.546799 471.712883,408.266808 C471.712883,408.466809 471.646217,408.64014 471.512883,408.786808 C471.379549,408.933475 471.212884,409.006808 471.012883,409.006808 C470.812882,409.006808 470.63955,408.940142 470.492883,408.806808 C470.346216,408.673474 470.272883,408.506809 470.272883,408.306808 C470.272883,408.133473 470.266216,407.953475 470.252883,407.766808 C469.906215,408.060142 469.439553,408.30014 468.852883,408.486808 C467.386209,408.953477 466.219554,408.800145 465.352883,408.026808 C464.566212,407.333471 464.226216,406.380147 464.332883,405.166808 C464.372883,404.620138 464.516215,404.093477 464.762883,403.586808 C465.009551,403.080138 465.336214,402.623476 465.742883,402.216808 C466.149552,401.810139 466.67288,401.500142 467.312883,401.286808 C467.939553,401.06014 468.632879,400.973474 469.392883,401.026808 C469.592884,401.040141 469.756216,401.123474 469.882883,401.276808 C470.00955,401.430142 470.066216,401.606807 470.052883,401.806808 C470.03955,402.006809 469.956217,402.17014 469.802883,402.296808 C469.649549,402.423475 469.472884,402.480141 469.272883,402.466808 Z M474.932883,405.026808 C476.546224,404.973474 477.619547,404.640144 478.152883,404.026808 C478.406218,403.733473 478.562883,403.410143 478.622883,403.056808 C478.682883,402.703473 478.652884,402.413475 478.532883,402.186808 C478.279548,401.626805 477.779553,401.433473 477.032883,401.606808 C476.152879,401.806809 475.532885,402.233471 475.172883,402.886808 C474.812881,403.540144 474.732882,404.25347 474.932883,405.026808 Z M473.672883,405.806808 C473.526216,405.380139 473.43955,404.940143 473.412883,404.486808 C473.386216,404.033472 473.429549,403.580143 473.542883,403.126808 C473.656217,402.673472 473.839548,402.25681 474.092883,401.876808 C474.346218,401.496806 474.696214,401.156809 475.142883,400.856808 C475.589552,400.556806 476.11288,400.340142 476.712883,400.206808 C477.432887,400.033473 478.07288,400.08014 478.632883,400.346808 C479.192886,400.613476 479.599548,401.033471 479.852883,401.606808 C480.092884,402.113477 480.156217,402.680138 480.042883,403.306808 C479.929549,403.933477 479.659552,404.493472 479.232883,404.986808 C478.499546,405.813478 477.312891,406.293474 475.672883,406.426808 C476.019551,406.786809 476.419547,407.033474 476.872883,407.166808 C477.792888,407.433476 478.826211,407.173478 479.972883,406.386808 C480.132884,406.28014 480.309549,406.243474 480.502883,406.276808 C480.696217,406.310141 480.849549,406.41014 480.962883,406.576808 C481.076217,406.743475 481.116216,406.923473 481.082883,407.116808 C481.049549,407.310142 480.946217,407.466807 480.772883,407.586808 C479.266209,408.626813 477.83289,408.94681 476.472883,408.546808 C475.87288,408.373473 475.346219,408.080143 474.892883,407.666808 C474.439547,407.253472 474.086218,406.760144 473.832883,406.186808 C473.739549,406.08014 473.686216,405.953475 473.672883,405.806808 Z M487.652883,396.746808 C487.612883,396.346806 487.496217,396.013476 487.302883,395.746808 C487.109549,395.48014 486.899551,395.313475 486.672883,395.246808 C486.232881,395.113474 485.912884,395.353471 485.712883,395.966808 C485.606216,396.340143 485.536216,396.736806 485.502883,397.156808 C485.469549,397.57681 485.456216,398.133471 485.462883,398.826808 C485.46955,399.520144 485.472883,399.986806 485.472883,400.226808 C485.45955,401.040145 485.446216,401.780138 485.432883,402.446808 C486.259554,402.233473 486.926214,402.080141 487.432883,401.986808 C487.632884,401.946807 487.816215,401.983474 487.982883,402.096808 C488.14955,402.210142 488.249549,402.363473 488.282883,402.556808 C488.316216,402.750142 488.276217,402.93014 488.162883,403.096808 C488.049549,403.263475 487.899551,403.360141 487.712883,403.386808 C487.406215,403.453475 486.639556,403.633473 485.412883,403.926808 C485.386216,405.393482 485.372883,406.746801 485.372883,407.986808 C485.372883,408.186809 485.302884,408.356807 485.162883,408.496808 C485.022882,408.636808 484.852884,408.706808 484.652883,408.706808 C484.452882,408.706808 484.282884,408.636808 484.142883,408.496808 C484.002882,408.356807 483.932883,408.186809 483.932883,407.986808 C483.932883,406.840135 483.93955,405.600148 483.952883,404.266808 C483.246213,404.400142 482.612886,404.473474 482.052883,404.486808 C481.852882,404.486808 481.67955,404.420142 481.532883,404.286808 C481.386216,404.153474 481.312883,403.986809 481.312883,403.786808 C481.312883,403.586807 481.379549,403.413475 481.512883,403.266808 C481.646217,403.12014 481.812882,403.046808 482.012883,403.046808 C482.612886,403.033474 483.266213,402.946808 483.972883,402.786808 C483.986216,402.026804 484.006216,401.160146 484.032883,400.186808 C484.032883,400.093474 484.026216,399.663478 484.012883,398.896808 C483.99955,398.130137 484.016216,397.490144 484.062883,396.976808 C484.10955,396.463472 484.206216,395.980143 484.352883,395.526808 C484.566217,394.833471 484.929547,394.336809 485.442883,394.036808 C485.956219,393.736806 486.506213,393.68014 487.092883,393.866808 C487.626219,394.040142 488.076214,394.373472 488.442883,394.866808 C488.809551,395.360143 489.026216,395.946804 489.092883,396.626808 C489.106216,396.826809 489.04955,397.00014 488.922883,397.146808 C488.796216,397.293475 488.632884,397.376808 488.432883,397.396808 C488.232882,397.416808 488.05955,397.363475 487.912883,397.236808 C487.766216,397.11014 487.67955,396.946809 487.652883,396.746808 Z M492.072883,401.466808 C492.072883,402.213478 492.102883,403.3368 492.162883,404.836808 C492.222883,406.336815 492.252883,407.460137 492.252883,408.206808 C492.252883,408.406809 492.182884,408.576807 492.042883,408.716808 C491.902882,408.856808 491.732884,408.926808 491.532883,408.926808 C491.332882,408.926808 491.162884,408.856808 491.022883,408.716808 C490.882882,408.576807 490.812883,408.406809 490.812883,408.206808 C490.812883,407.460137 490.782883,406.336815 490.722883,404.836808 C490.662883,403.3368 490.632883,402.213478 490.632883,401.466808 C490.632883,401.266807 490.702882,401.096808 490.842883,400.956808 C490.982884,400.816807 491.152882,400.746808 491.352883,400.746808 C491.552884,400.746808 491.722882,400.816807 491.862883,400.956808 C492.002884,401.096808 492.072883,401.266807 492.072883,401.466808 Z M491.852883,397.766808 C491.852883,397.966809 491.782884,398.136807 491.642883,398.276808 C491.502882,398.416808 491.332884,398.486808 491.132883,398.486808 C490.932882,398.486808 490.762884,398.416808 490.622883,398.276808 C490.482882,398.136807 490.412883,397.966809 490.412883,397.766808 C490.412883,397.566807 490.482882,397.396808 490.622883,397.256808 C490.762884,397.116807 490.932882,397.046808 491.132883,397.046808 C491.332884,397.046808 491.502882,397.116807 491.642883,397.256808 C491.782884,397.396808 491.852883,397.566807 491.852883,397.766808 Z M495.272883,402.906808 C495.846219,402.040137 496.526212,401.526808 497.312883,401.366808 C497.96622,401.233474 498.55288,401.380139 499.072883,401.806808 C499.566219,402.20681 499.939548,402.826803 500.192883,403.666808 C500.539551,404.840147 500.592884,406.320132 500.352883,408.106808 C500.326216,408.306809 500.232884,408.466807 500.072883,408.586808 C499.912882,408.706808 499.732884,408.753474 499.532883,408.726808 C499.332882,408.700141 499.172884,408.606808 499.052883,408.446808 C498.932882,408.286807 498.886216,408.106809 498.912883,407.906808 C499.126217,406.320133 499.086218,405.040146 498.792883,404.066808 C498.632882,403.520138 498.419551,403.140142 498.152883,402.926808 C497.992882,402.793474 497.812884,402.746807 497.612883,402.786808 C497.346215,402.840141 497.072884,403.013473 496.792883,403.306808 C496.512882,403.600142 496.279551,403.993472 496.092883,404.486808 C495.959549,404.820143 495.876216,405.190139 495.842883,405.596808 C495.809549,406.003476 495.802883,406.396806 495.822883,406.776808 C495.842883,407.15681 495.832883,407.613472 495.792883,408.146808 C495.792883,408.200141 495.786216,408.240141 495.772883,408.266808 C495.772883,408.333475 495.766216,408.400141 495.752883,408.466808 C495.726216,408.533475 495.692883,408.593474 495.652883,408.646808 C495.452882,408.926809 495.186218,409.020141 494.852883,408.926808 C494.759549,408.900141 494.672883,408.853475 494.592883,408.786808 C494.512883,408.720141 494.45955,408.660141 494.432883,408.606808 L494.392883,408.526808 L494.352883,408.406808 L494.332883,408.266808 L494.332883,407.586808 C494.346216,406.840137 494.346216,406.353475 494.332883,406.126808 C494.252883,404.846801 493.992885,403.493481 493.552883,402.066808 C493.486216,401.88014 493.499549,401.696809 493.592883,401.516808 C493.686217,401.336807 493.826215,401.216808 494.012883,401.156808 C494.199551,401.096807 494.382882,401.113474 494.562883,401.206808 C494.742884,401.300141 494.859549,401.44014 494.912883,401.626808 C495.05955,402.06681 495.179549,402.493472 495.272883,402.906808 Z M503.552883,405.026808 C505.166224,404.973474 506.239547,404.640144 506.772883,404.026808 C507.026218,403.733473 507.182883,403.410143 507.242883,403.056808 C507.302883,402.703473 507.272884,402.413475 507.152883,402.186808 C506.899548,401.626805 506.399553,401.433473 505.652883,401.606808 C504.772879,401.806809 504.152885,402.233471 503.792883,402.886808 C503.432881,403.540144 503.352882,404.25347 503.552883,405.026808 Z M502.292883,405.806808 C502.146216,405.380139 502.05955,404.940143 502.032883,404.486808 C502.006216,404.033472 502.049549,403.580143 502.162883,403.126808 C502.276217,402.673472 502.459548,402.25681 502.712883,401.876808 C502.966218,401.496806 503.316214,401.156809 503.762883,400.856808 C504.209552,400.556806 504.73288,400.340142 505.332883,400.206808 C506.052887,400.033473 506.69288,400.08014 507.252883,400.346808 C507.812886,400.613476 508.219548,401.033471 508.472883,401.606808 C508.712884,402.113477 508.776217,402.680138 508.662883,403.306808 C508.549549,403.933477 508.279552,404.493472 507.852883,404.986808 C507.119546,405.813478 505.932891,406.293474 504.292883,406.426808 C504.639551,406.786809 505.039547,407.033474 505.492883,407.166808 C506.412888,407.433476 507.446211,407.173478 508.592883,406.386808 C508.752884,406.28014 508.929549,406.243474 509.122883,406.276808 C509.316217,406.310141 509.469549,406.41014 509.582883,406.576808 C509.696217,406.743475 509.736216,406.923473 509.702883,407.116808 C509.669549,407.310142 509.566217,407.466807 509.392883,407.586808 C507.886209,408.626813 506.45289,408.94681 505.092883,408.546808 C504.49288,408.373473 503.966219,408.080143 503.512883,407.666808 C503.059547,407.253472 502.706218,406.760144 502.452883,406.186808 C502.359549,406.08014 502.306216,405.953475 502.292883,405.806808 Z M516.092883,401.026808 C515.946216,401.000141 515.79955,400.966808 515.652883,400.926808 L515.292883,400.846808 C515.199549,400.833474 515.106217,400.826808 515.012883,400.826808 C514.852882,400.826808 514.642884,400.893474 514.382883,401.026808 C514.122882,401.160142 513.892884,401.34014 513.692883,401.566808 C513.279548,402.00681 513.152882,402.380139 513.312883,402.686808 C513.432884,402.873475 513.819546,403.073473 514.472883,403.286808 C514.699551,403.353475 514.862882,403.406807 514.962883,403.446808 C515.062883,403.486808 515.226215,403.56014 515.452883,403.666808 C515.679551,403.773475 515.869549,403.903474 516.022883,404.056808 C516.176217,404.210142 516.299549,404.386807 516.392883,404.586808 C516.659551,405.213477 516.736217,405.776805 516.622883,406.276808 C516.509549,406.77681 516.266218,407.220139 515.892883,407.606808 C515.532881,407.966809 515.119552,408.22014 514.652883,408.366808 C514.186214,408.513475 513.699552,408.506808 513.192883,408.346808 C512.952882,408.253474 512.699551,408.100142 512.432883,407.886808 C512.406216,407.873474 512.326217,407.820141 512.192883,407.726808 L511.912883,407.486808 C511.739549,407.366807 511.636216,407.210142 511.602883,407.016808 C511.569549,406.823473 511.609549,406.643475 511.722883,406.476808 C511.836217,406.31014 511.989549,406.210141 512.182883,406.176808 C512.376217,406.143474 512.552882,406.18014 512.712883,406.286808 C512.726216,406.300141 512.926214,406.453473 513.312883,406.746808 C513.472884,406.866808 513.606216,406.946807 513.712883,406.986808 C513.85955,407.040141 514.039549,407.036808 514.252883,406.976808 C514.466217,406.916807 514.666215,406.786809 514.852883,406.586808 C515.266218,406.173472 515.352884,405.720143 515.112883,405.226808 C515.019549,405.04014 514.659553,404.846809 514.032883,404.646808 C514.006216,404.646808 513.972883,404.640141 513.932883,404.626808 C513.666215,404.533474 513.44955,404.453475 513.282883,404.386808 C513.116215,404.320141 512.906218,404.196809 512.652883,404.016808 C512.399548,403.836807 512.206217,403.620142 512.072883,403.366808 C511.859549,403.046806 511.772883,402.703476 511.812883,402.336808 C511.852883,401.970139 511.942882,401.650142 512.082883,401.376808 C512.222884,401.103473 512.406215,400.846809 512.632883,400.606808 C512.952885,400.246806 513.329547,399.953475 513.762883,399.726808 C514.196218,399.50014 514.612881,399.386808 515.012883,399.386808 C515.15955,399.386808 515.322882,399.403474 515.502883,399.436808 C515.682884,399.470141 515.859549,399.506807 516.032883,399.546808 C516.206217,399.586808 516.306216,399.613474 516.332883,399.626808 C516.532884,399.653474 516.689549,399.75014 516.802883,399.916808 C516.916217,400.083475 516.956216,400.263473 516.922883,400.456808 C516.889549,400.650142 516.78955,400.803474 516.622883,400.916808 C516.456215,401.030142 516.279551,401.066808 516.092883,401.026808 Z M532.092883,401.006808 L530.532883,404.766808 C530.172881,405.593478 529.65622,406.696801 528.982883,408.076808 C528.309546,409.456815 527.652886,410.673469 527.012883,411.726808 C526.906216,411.886808 526.756217,411.990141 526.562883,412.036808 C526.369549,412.083475 526.18955,412.056808 526.022883,411.956808 C525.856215,411.856807 525.74955,411.710142 525.702883,411.516808 C525.656216,411.323473 525.679549,411.140142 525.772883,410.966808 C526.532887,409.740135 527.286213,408.333482 528.032883,406.746808 C526.166207,404.880132 524.879553,402.873485 524.172883,400.726808 C524.106216,400.54014 524.116216,400.360142 524.202883,400.186808 C524.28955,400.013473 524.429549,399.893475 524.622883,399.826808 C524.816217,399.760141 524.999549,399.770141 525.172883,399.856808 C525.346217,399.943475 525.466216,400.086807 525.532883,400.286808 C526.132886,402.06015 527.179542,403.7468 528.672883,405.346808 C529.139552,404.333469 529.839545,402.700152 530.772883,400.446808 C530.83955,400.26014 530.966215,400.130141 531.152883,400.056808 C531.339551,399.983474 531.526215,399.983474 531.712883,400.056808 C531.899551,400.130141 532.029549,400.26014 532.102883,400.446808 C532.176217,400.633475 532.172883,400.82014 532.092883,401.006808 Z M535.332883,400.546808 C535.372883,400.240139 535.539548,400.040141 535.832883,399.946808 C536.219552,399.826807 536.526215,399.740141 536.752883,399.686808 C536.979551,399.633474 537.296214,399.603474 537.702883,399.596808 C538.109552,399.590141 538.486215,399.646807 538.832883,399.766808 C539.64622,400.086809 540.262881,400.623471 540.682883,401.376808 C541.102885,402.130145 541.29955,402.946803 541.272883,403.826808 C541.246216,404.706812 540.992885,405.526804 540.512883,406.286808 C540.032881,407.046811 539.352887,407.593473 538.472883,407.926808 C537.219543,408.393477 536.139554,408.333477 535.232883,407.746808 C534.446212,407.226805 533.939551,406.420146 533.712883,405.326808 C533.552882,404.47347 533.609548,403.603479 533.882883,402.716808 C534.156218,401.830137 534.639546,401.10681 535.332883,400.546808 Z M536.792883,401.326808 C536.139546,401.633476 535.659551,402.146804 535.352883,402.866808 C535.059548,403.586811 534.986216,404.313471 535.132883,405.046808 C535.266217,405.740144 535.566214,406.233473 536.032883,406.526808 C536.526219,406.860143 537.166212,406.873476 537.952883,406.566808 C538.539553,406.353473 538.992881,405.993477 539.312883,405.486808 C539.632885,404.980138 539.806216,404.406811 539.832883,403.766808 C539.85955,403.153471 539.736218,402.603477 539.462883,402.116808 C539.189548,401.630139 538.806219,401.300142 538.312883,401.126808 C537.979548,400.993474 537.566219,400.98014 537.072883,401.086808 C537.006216,401.193475 536.912884,401.273474 536.792883,401.326808 Z M544.932883,401.206808 C544.91955,401.340142 544.89955,401.606806 544.872883,402.006808 C544.846216,402.40681 544.826216,402.73014 544.812883,402.976808 C544.79955,403.223476 544.792883,403.533472 544.792883,403.906808 C544.792883,404.280143 544.806216,404.620139 544.832883,404.926808 C544.966217,406.260148 545.392879,407.04014 546.112883,407.266808 C546.486218,407.373475 546.792882,407.326809 547.032883,407.126808 C547.526219,406.700139 547.859549,405.820148 548.032883,404.486808 C548.086217,404.166806 548.132883,403.673478 548.172883,403.006808 L548.232883,402.466808 C548.246216,402.373474 548.25955,402.293475 548.272883,402.226808 C548.326217,402.053473 548.406216,401.920141 548.512883,401.826808 C548.766218,401.56014 549.046215,401.513473 549.352883,401.686808 C549.49955,401.766808 549.606216,401.88014 549.672883,402.026808 C549.69955,402.093475 549.726216,402.166807 549.752883,402.246808 C549.752883,402.300141 549.75955,402.38014 549.772883,402.486808 C549.786216,402.633475 549.79955,402.833473 549.812883,403.086808 C549.812883,403.206808 549.816216,403.336807 549.822883,403.476808 C549.82955,403.616808 549.832883,403.726807 549.832883,403.806808 L549.832883,403.946808 C549.886217,404.986813 549.932883,405.58014 549.972883,405.726808 C550.052883,406.073476 550.326214,406.506805 550.792883,407.026808 C550.926217,407.173475 550.986216,407.346807 550.972883,407.546808 C550.95955,407.746809 550.87955,407.913474 550.732883,408.046808 C550.586216,408.180142 550.412884,408.240141 550.212883,408.226808 C550.012882,408.213474 549.846217,408.133475 549.712883,407.986808 C549.352881,407.573472 549.079551,407.206809 548.892883,406.886808 C548.652882,407.44681 548.339552,407.886806 547.952883,408.206808 C547.31288,408.753477 546.566221,408.893476 545.712883,408.626808 C544.36621,408.226806 543.592884,407.040151 543.392883,405.066808 C543.366216,404.733473 543.352883,404.360143 543.352883,403.946808 C543.352883,403.533472 543.35955,403.190142 543.372883,402.916808 C543.386216,402.643473 543.409549,402.300143 543.442883,401.886808 C543.476216,401.473472 543.492883,401.220141 543.492883,401.126808 C543.506216,400.926807 543.586216,400.760142 543.732883,400.626808 C543.87955,400.493474 544.052882,400.433474 544.252883,400.446808 C544.452884,400.460141 544.619549,400.54014 544.752883,400.686808 C544.886217,400.833475 544.946216,401.006807 544.932883,401.206808 Z M553.952883,402.706808 C554.286218,402.053471 554.666214,401.500143 555.092883,401.046808 C556.146222,399.913469 557.239544,399.573472 558.372883,400.026808 C558.599551,400.106808 558.839548,400.253473 559.092883,400.466808 C559.106216,400.480141 559.166216,400.536807 559.272883,400.636808 C559.37955,400.736808 559.466216,400.806807 559.532883,400.846808 C559.692884,400.966808 559.786216,401.126807 559.812883,401.326808 C559.83955,401.526809 559.792884,401.706807 559.672883,401.866808 C559.552882,402.026808 559.392884,402.120141 559.192883,402.146808 C558.992882,402.173474 558.812884,402.126808 558.652883,402.006808 C558.63955,401.993474 558.472885,401.846809 558.152883,401.566808 C558.032882,401.46014 557.932883,401.386808 557.852883,401.346808 C557.33288,401.146807 556.766219,401.373471 556.152883,402.026808 C555.579547,402.640144 555.152884,403.35347 554.872883,404.166808 C554.779549,404.446809 554.706217,404.716806 554.652883,404.976808 C554.599549,405.236809 554.566216,405.436807 554.552883,405.576808 C554.53955,405.716808 554.52955,405.980139 554.522883,406.366808 C554.516216,406.753476 554.506216,407.053473 554.492883,407.266808 C554.492883,407.293474 554.496216,407.330141 554.502883,407.376808 C554.50955,407.423475 554.516216,407.493474 554.522883,407.586808 C554.52955,407.680141 554.532883,407.773474 554.532883,407.866808 C554.546216,408.080142 554.53955,408.246807 554.512883,408.366808 C554.419549,408.700143 554.212885,408.886807 553.892883,408.926808 C553.639548,408.966808 553.412884,408.886809 553.212883,408.686808 C552.932882,408.42014 552.832883,408.053477 552.912883,407.586808 C552.926216,407.520141 552.93955,407.460141 552.952883,407.406808 C552.966216,407.353474 552.976216,407.316808 552.982883,407.296808 C552.98955,407.276808 552.992883,407.260141 552.992883,407.246808 L552.992883,407.186808 C552.97955,406.626805 552.952883,406.206809 552.912883,405.926808 C552.766216,404.553467 552.606217,403.380146 552.432883,402.406808 C552.259549,401.433469 552.012885,400.493479 551.692883,399.586808 C551.626216,399.40014 551.636216,399.216809 551.722883,399.036808 C551.80955,398.856807 551.946215,398.733475 552.132883,398.666808 C552.319551,398.600141 552.502882,398.610141 552.682883,398.696808 C552.862884,398.783475 552.986216,398.92014 553.052883,399.106808 C553.426218,400.160146 553.726215,401.360134 553.952883,402.706808 Z M568.692883,403.346808 C568.79955,405.093483 568.85955,406.453469 568.872883,407.426808 C569.432886,407.360141 569.936214,407.240142 570.382883,407.066808 C570.829552,406.893473 571.196215,406.690142 571.482883,406.456808 C571.769551,406.223473 572.009549,405.970142 572.202883,405.696808 C572.396217,405.423473 572.529549,405.143476 572.602883,404.856808 C572.676217,404.57014 572.712883,404.290142 572.712883,404.016808 C572.712883,403.743473 572.67955,403.486809 572.612883,403.246808 C572.492882,402.873472 572.319551,402.573475 572.092883,402.346808 C571.866215,402.12014 571.606218,401.986808 571.312883,401.946808 C570.526212,401.826807 569.652888,402.293469 568.692883,403.346808 Z M568.692883,394.966808 C568.492882,396.646816 568.459549,398.813461 568.592883,401.466808 C569.592888,400.680137 570.566212,400.36014 571.512883,400.506808 C572.126219,400.600141 572.646214,400.860139 573.072883,401.286808 C573.499552,401.713476 573.806215,402.226805 573.992883,402.826808 C574.126217,403.22681 574.182883,403.640139 574.162883,404.066808 C574.142883,404.493476 574.07955,404.913472 573.972883,405.326808 C573.866216,405.740143 573.669551,406.140139 573.382883,406.526808 C573.096215,406.913476 572.759552,407.263473 572.372883,407.576808 C571.986214,407.890143 571.506219,408.16014 570.932883,408.386808 C570.359547,408.613475 569.72622,408.773474 569.032883,408.866808 C568.806215,408.893474 568.612884,408.833475 568.452883,408.686808 C568.359549,408.726808 568.25955,408.746808 568.152883,408.746808 C567.952882,408.746808 567.782884,408.676808 567.642883,408.536808 C567.502882,408.396807 567.432883,408.226809 567.432883,408.026808 C567.432883,407.160137 567.402883,406.093481 567.342883,404.826808 C567.282883,403.560135 567.222883,402.436813 567.162883,401.456808 C567.102883,400.476803 567.076216,399.37348 567.082883,398.146808 C567.08955,396.920135 567.146216,395.806813 567.252883,394.806808 C567.27955,394.606807 567.369549,394.446808 567.522883,394.326808 C567.676217,394.206807 567.852882,394.156808 568.052883,394.176808 C568.252884,394.196808 568.412882,394.283474 568.532883,394.436808 C568.652884,394.590142 568.706216,394.766807 568.692883,394.966808 Z M577.332883,400.546808 C577.372883,400.240139 577.539548,400.040141 577.832883,399.946808 C578.219552,399.826807 578.526215,399.740141 578.752883,399.686808 C578.979551,399.633474 579.296214,399.603474 579.702883,399.596808 C580.109552,399.590141 580.486215,399.646807 580.832883,399.766808 C581.64622,400.086809 582.262881,400.623471 582.682883,401.376808 C583.102885,402.130145 583.29955,402.946803 583.272883,403.826808 C583.246216,404.706812 582.992885,405.526804 582.512883,406.286808 C582.032881,407.046811 581.352887,407.593473 580.472883,407.926808 C579.219543,408.393477 578.139554,408.333477 577.232883,407.746808 C576.446212,407.226805 575.939551,406.420146 575.712883,405.326808 C575.552882,404.47347 575.609548,403.603479 575.882883,402.716808 C576.156218,401.830137 576.639546,401.10681 577.332883,400.546808 Z M578.792883,401.326808 C578.139546,401.633476 577.659551,402.146804 577.352883,402.866808 C577.059548,403.586811 576.986216,404.313471 577.132883,405.046808 C577.266217,405.740144 577.566214,406.233473 578.032883,406.526808 C578.526219,406.860143 579.166212,406.873476 579.952883,406.566808 C580.539553,406.353473 580.992881,405.993477 581.312883,405.486808 C581.632885,404.980138 581.806216,404.406811 581.832883,403.766808 C581.85955,403.153471 581.736218,402.603477 581.462883,402.116808 C581.189548,401.630139 580.806219,401.300142 580.312883,401.126808 C579.979548,400.993474 579.566219,400.98014 579.072883,401.086808 C579.006216,401.193475 578.912884,401.273474 578.792883,401.326808 Z M589.792883,402.466808 C588.766211,402.386807 587.939553,402.633471 587.312883,403.206808 C586.699547,403.780144 586.35955,404.47347 586.292883,405.286808 C586.226216,406.020145 586.399548,406.573472 586.812883,406.946808 C587.292885,407.360143 587.999545,407.420142 588.932883,407.126808 C589.479552,406.953473 589.859549,406.713476 590.072883,406.406808 C590.232884,406.18014 590.419549,405.673478 590.632883,404.886808 C590.65955,404.793474 590.706216,404.713475 590.772883,404.646808 C590.772883,403.700136 590.802883,402.090152 590.862883,399.816808 C590.922883,397.543463 590.952883,395.79348 590.952883,394.566808 C590.952883,394.366807 591.022882,394.196808 591.162883,394.056808 C591.302884,393.916807 591.472882,393.846808 591.672883,393.846808 C591.872884,393.846808 592.042882,393.916807 592.182883,394.056808 C592.322884,394.196808 592.392883,394.366807 592.392883,394.566808 C592.392883,395.660146 592.352883,397.786792 592.272883,400.946808 C592.192883,404.106823 592.179549,406.546799 592.232883,408.266808 C592.232883,408.466809 592.166217,408.64014 592.032883,408.786808 C591.899549,408.933475 591.732884,409.006808 591.532883,409.006808 C591.332882,409.006808 591.15955,408.940142 591.012883,408.806808 C590.866216,408.673474 590.792883,408.506809 590.792883,408.306808 C590.792883,408.133473 590.786216,407.953475 590.772883,407.766808 C590.426215,408.060142 589.959553,408.30014 589.372883,408.486808 C587.906209,408.953477 586.739554,408.800145 585.872883,408.026808 C585.086212,407.333471 584.746216,406.380147 584.852883,405.166808 C584.892883,404.620138 585.036215,404.093477 585.282883,403.586808 C585.529551,403.080138 585.856214,402.623476 586.262883,402.216808 C586.669552,401.810139 587.19288,401.500142 587.832883,401.286808 C588.459553,401.06014 589.152879,400.973474 589.912883,401.026808 C590.112884,401.040141 590.276216,401.123474 590.402883,401.276808 C590.52955,401.430142 590.586216,401.606807 590.572883,401.806808 C590.55955,402.006809 590.476217,402.17014 590.322883,402.296808 C590.169549,402.423475 589.992884,402.480141 589.792883,402.466808 Z M601.552883,401.006808 L599.992883,404.766808 C599.632881,405.593478 599.11622,406.696801 598.442883,408.076808 C597.769546,409.456815 597.112886,410.673469 596.472883,411.726808 C596.366216,411.886808 596.216217,411.990141 596.022883,412.036808 C595.829549,412.083475 595.64955,412.056808 595.482883,411.956808 C595.316215,411.856807 595.20955,411.710142 595.162883,411.516808 C595.116216,411.323473 595.139549,411.140142 595.232883,410.966808 C595.992887,409.740135 596.746213,408.333482 597.492883,406.746808 C595.626207,404.880132 594.339553,402.873485 593.632883,400.726808 C593.566216,400.54014 593.576216,400.360142 593.662883,400.186808 C593.74955,400.013473 593.889549,399.893475 594.082883,399.826808 C594.276217,399.760141 594.459549,399.770141 594.632883,399.856808 C594.806217,399.943475 594.926216,400.086807 594.992883,400.286808 C595.592886,402.06015 596.639542,403.7468 598.132883,405.346808 C598.599552,404.333469 599.299545,402.700152 600.232883,400.446808 C600.29955,400.26014 600.426215,400.130141 600.612883,400.056808 C600.799551,399.983474 600.986215,399.983474 601.172883,400.056808 C601.359551,400.130141 601.489549,400.26014 601.562883,400.446808 C601.636217,400.633475 601.632883,400.82014 601.552883,401.006808 Z M610.892883,395.006808 C610.932883,395.246809 610.946216,395.706804 610.932883,396.386808 C610.91955,397.066811 610.906216,397.546806 610.892883,397.826808 L610.812883,399.286808 L610.752883,400.766808 C610.73955,401.020142 610.726216,401.253473 610.712883,401.466808 C611.499554,401.400141 612.239546,401.320141 612.932883,401.226808 C613.119551,401.200141 613.292882,401.25014 613.452883,401.376808 C613.612884,401.503475 613.706216,401.663473 613.732883,401.856808 C613.75955,402.050142 613.70955,402.226807 613.582883,402.386808 C613.456216,402.546808 613.292884,402.640141 613.092883,402.666808 C612.359546,402.746808 611.559554,402.826807 610.692883,402.906808 C610.706216,404.200147 610.819549,405.27347 611.032883,406.126808 C611.312884,407.260147 611.73288,407.826808 612.292883,407.826808 C612.572884,407.813474 612.896214,407.683476 613.262883,407.436808 C613.629551,407.19014 613.992881,406.820143 614.352883,406.326808 C614.472884,406.166807 614.632882,406.073474 614.832883,406.046808 C615.032884,406.020141 615.212882,406.066807 615.372883,406.186808 C615.532884,406.306808 615.626216,406.466807 615.652883,406.666808 C615.67955,406.866809 615.632884,407.046807 615.512883,407.206808 C614.486211,408.553481 613.426222,409.240141 612.332883,409.266808 C611.666213,409.280141 611.102885,409.040143 610.642883,408.546808 C610.182881,408.053472 609.846217,407.366812 609.632883,406.486808 C609.406215,405.526803 609.27955,404.380148 609.252883,403.046808 L608.172883,403.126808 C607.972882,403.140141 607.796217,403.083475 607.642883,402.956808 C607.489549,402.83014 607.406216,402.666809 607.392883,402.466808 C607.37955,402.266807 607.436216,402.090142 607.562883,401.936808 C607.68955,401.783474 607.852882,401.700141 608.052883,401.686808 L609.272883,401.586808 C609.286216,401.413473 609.29955,401.120143 609.312883,400.706808 C609.326216,400.400139 609.346216,399.900144 609.372883,399.206808 L609.452883,397.766808 C609.466216,397.50014 609.47955,397.043478 609.492883,396.396808 C609.506216,395.750138 609.492883,395.313475 609.452883,395.086808 C609.43955,394.886807 609.499549,394.713475 609.632883,394.566808 C609.766217,394.42014 609.932882,394.340141 610.132883,394.326808 C610.332884,394.313474 610.506216,394.373474 610.652883,394.506808 C610.79955,394.640142 610.87955,394.806807 610.892883,395.006808 Z M624.812883,401.006808 L623.252883,404.766808 C622.892881,405.593478 622.37622,406.696801 621.702883,408.076808 C621.029546,409.456815 620.372886,410.673469 619.732883,411.726808 C619.626216,411.886808 619.476217,411.990141 619.282883,412.036808 C619.089549,412.083475 618.90955,412.056808 618.742883,411.956808 C618.576215,411.856807 618.46955,411.710142 618.422883,411.516808 C618.376216,411.323473 618.399549,411.140142 618.492883,410.966808 C619.252887,409.740135 620.006213,408.333482 620.752883,406.746808 C618.886207,404.880132 617.599553,402.873485 616.892883,400.726808 C616.826216,400.54014 616.836216,400.360142 616.922883,400.186808 C617.00955,400.013473 617.149549,399.893475 617.342883,399.826808 C617.536217,399.760141 617.719549,399.770141 617.892883,399.856808 C618.066217,399.943475 618.186216,400.086807 618.252883,400.286808 C618.852886,402.06015 619.899542,403.7468 621.392883,405.346808 C621.859552,404.333469 622.559545,402.700152 623.492883,400.446808 C623.55955,400.26014 623.686215,400.130141 623.872883,400.056808 C624.059551,399.983474 624.246215,399.983474 624.432883,400.056808 C624.619551,400.130141 624.749549,400.26014 624.822883,400.446808 C624.896217,400.633475 624.892883,400.82014 624.812883,401.006808 Z M628.132883,399.886808 C628.146216,400.873479 628.172883,402.033468 628.212883,403.366808 C629.212888,403.540142 630.039546,403.473476 630.692883,403.166808 C631.572887,402.753472 632.172881,402.280144 632.492883,401.746808 C632.812885,401.213472 632.912884,400.740143 632.792883,400.326808 C632.672882,399.926806 632.342886,399.613475 631.802883,399.386808 C631.26288,399.16014 630.526221,399.146807 629.592883,399.346808 C628.95288,399.493475 628.466218,399.673473 628.132883,399.886808 Z M627.232883,398.766808 C627.739552,398.406806 628.419545,398.133475 629.272883,397.946808 C630.486222,397.68014 631.542878,397.726806 632.442883,398.086808 C633.342887,398.446809 633.919548,399.05347 634.172883,399.906808 C634.426218,400.746812 634.292886,401.586803 633.772883,402.426808 C633.25288,403.266812 632.426222,403.953472 631.292883,404.486808 C630.426212,404.88681 629.426222,405.006808 628.292883,404.846808 C628.426217,407.95349 628.492883,410.160134 628.492883,411.466808 C628.492883,411.666809 628.422884,411.836807 628.282883,411.976808 C628.142882,412.116808 627.972884,412.186808 627.772883,412.186808 C627.572882,412.186808 627.402884,412.116808 627.262883,411.976808 C627.122882,411.836807 627.052883,411.666809 627.052883,411.466808 C627.052883,410.146801 626.996217,408.25682 626.882883,405.796808 C626.769549,403.336795 626.706216,401.566813 626.692883,400.486808 C626.652883,400.460141 626.61955,400.426808 626.592883,400.386808 C626.446216,400.253474 626.366216,400.086809 626.352883,399.886808 C626.33955,399.686807 626.406216,399.520142 626.552883,399.386808 C626.61955,399.306807 626.692883,399.226808 626.772883,399.146808 C626.866217,398.946807 627.019549,398.820141 627.232883,398.766808 Z M637.352883,405.026808 C638.966224,404.973474 640.039547,404.640144 640.572883,404.026808 C640.826218,403.733473 640.982883,403.410143 641.042883,403.056808 C641.102883,402.703473 641.072884,402.413475 640.952883,402.186808 C640.699548,401.626805 640.199553,401.433473 639.452883,401.606808 C638.572879,401.806809 637.952885,402.233471 637.592883,402.886808 C637.232881,403.540144 637.152882,404.25347 637.352883,405.026808 Z M636.092883,405.806808 C635.946216,405.380139 635.85955,404.940143 635.832883,404.486808 C635.806216,404.033472 635.849549,403.580143 635.962883,403.126808 C636.076217,402.673472 636.259548,402.25681 636.512883,401.876808 C636.766218,401.496806 637.116214,401.156809 637.562883,400.856808 C638.009552,400.556806 638.53288,400.340142 639.132883,400.206808 C639.852887,400.033473 640.49288,400.08014 641.052883,400.346808 C641.612886,400.613476 642.019548,401.033471 642.272883,401.606808 C642.512884,402.113477 642.576217,402.680138 642.462883,403.306808 C642.349549,403.933477 642.079552,404.493472 641.652883,404.986808 C640.919546,405.813478 639.732891,406.293474 638.092883,406.426808 C638.439551,406.786809 638.839547,407.033474 639.292883,407.166808 C640.212888,407.433476 641.246211,407.173478 642.392883,406.386808 C642.552884,406.28014 642.729549,406.243474 642.922883,406.276808 C643.116217,406.310141 643.269549,406.41014 643.382883,406.576808 C643.496217,406.743475 643.536216,406.923473 643.502883,407.116808 C643.469549,407.310142 643.366217,407.466807 643.192883,407.586808 C641.686209,408.626813 640.25289,408.94681 638.892883,408.546808 C638.29288,408.373473 637.766219,408.080143 637.312883,407.666808 C636.859547,407.253472 636.506218,406.760144 636.252883,406.186808 C636.159549,406.08014 636.106216,405.953475 636.092883,405.806808 Z"></path>
            </g>
        </g>
    </g>
</svg>