<svg xmlns="http://www.w3.org/2000/svg" width="73" height="14" viewBox="0 0 73 14">
    <path fill="#FFF" fill-rule="evenodd" d="M.798 1.242c.513.047 1.083.08 1.708.098.625.019 1.122.03 1.491.035.369.005.964.005 1.785 0s1.344-.007 1.568-.007c.14 0 .259.049.357.147a.486.486 0 0 1 .147.357c0 .14-.049.259-.147.357a.486.486 0 0 1-.357.147c-.243 0-.71.002-1.4.007s-1.223.002-1.596-.007c.019.97-.01 2.305-.084 4.004-.084 1.923-.126 3.271-.126 4.046 0 .14-.049.259-.147.357a.486.486 0 0 1-.357.147.486.486 0 0 1-.357-.147.486.486 0 0 1-.147-.357c0-.793.042-2.156.126-4.088.075-1.708.103-3.029.084-3.962-.98-.019-1.857-.06-2.632-.126a.468.468 0 0 1-.343-.175.51.51 0 0 1-.119-.371.468.468 0 0 1 .175-.343.51.51 0 0 1 .371-.119zM12.586 9.39c.056-.27.103-.518.14-.742a2.387 2.387 0 0 0-.868-.413 2.015 2.015 0 0 0-.784-.049c-.224.037-.43.112-.616.224-.252.15-.401.322-.448.518-.037.168.028.336.196.504.327.29.665.469 1.015.539.35.07.628.044.833-.077.224-.112.401-.28.532-.504zm-1.624-6.006a5.881 5.881 0 0 1 .434.056l.21.028c.121.019.208.037.259.056.051.019.128.044.231.077.103.033.189.068.259.105.07.037.147.082.231.133.084.051.163.11.238.175.775.672 1.125 1.797 1.05 3.374-.019.308-.051.64-.098.994.028.495-.047.943-.224 1.344-.037.14-.112.467-.224.98a.471.471 0 0 1-.217.308.505.505 0 0 1-.385.07.428.428 0 0 1-.322-.238c-.439.187-.917.222-1.435.105s-.996-.38-1.435-.791c-.467-.42-.635-.91-.504-1.47.112-.476.42-.863.924-1.162a2.717 2.717 0 0 1 1.337-.364c.49-.01 1.01.117 1.561.378.01-.065.014-.135.014-.21.056-1.241-.182-2.095-.714-2.562a1.229 1.229 0 0 0-.371-.203 2.567 2.567 0 0 0-.364-.105 7.873 7.873 0 0 0-.567-.07.518.518 0 0 1-.343-.189.463.463 0 0 1-.105-.371.518.518 0 0 1 .189-.343.463.463 0 0 1 .371-.105zm4.928-1.652c-.01.383-.019.59-.028.623-.01.033-.002.233.021.602s.035.595.035.679c.037.905.06 1.941.07 3.108l.868-.84a51.81 51.81 0 0 1 1.61-1.498.508.508 0 0 1 .371-.126c.135.01.25.068.343.175a.486.486 0 0 1 .126.364.494.494 0 0 1-.168.343c-.299.261-.826.751-1.582 1.47l-.868.826.42.826c.093.177.22.378.378.602.159.224.334.413.525.567.191.154.422.31.693.469a.47.47 0 0 1 .238.301.484.484 0 0 1-.049.385.495.495 0 0 1-.308.238.468.468 0 0 1-.385-.056c-.56-.317-.994-.66-1.302-1.029-.308-.369-.607-.842-.896-1.421v2.016c0 .14-.049.259-.147.357a.486.486 0 0 1-.357.147.486.486 0 0 1-.357-.147.486.486 0 0 1-.147-.357c0-3.108-.028-5.339-.084-6.692 0-.019-.012-.231-.035-.637-.023-.406-.03-.63-.021-.672.01-.042.019-.278.028-.707a.518.518 0 0 1 .189-.343.474.474 0 0 1 .364-.112.486.486 0 0 1 .336.182.49.49 0 0 1 .119.357zm5.558 6.706c1.13-.037 1.88-.27 2.254-.7a1.38 1.38 0 0 0 .329-.679c.042-.247.021-.45-.063-.609-.177-.392-.527-.527-1.05-.406-.616.14-1.05.439-1.302.896s-.308.957-.168 1.498zm-.882.546a3.453 3.453 0 0 1-.182-.924 3.143 3.143 0 0 1 .091-.952 2.78 2.78 0 0 1 .385-.875c.177-.266.422-.504.735-.714.313-.21.679-.362 1.099-.455.504-.121.952-.089 1.344.098.392.187.677.48.854.882.168.355.212.751.133 1.19a2.43 2.43 0 0 1-.567 1.176c-.513.579-1.344.915-2.492 1.008.243.252.523.425.84.518.644.187 1.367.005 2.17-.546a.494.494 0 0 1 .371-.077.473.473 0 0 1 .322.21.499.499 0 0 1-.133.707c-1.055.728-2.058.952-3.01.672a2.752 2.752 0 0 1-1.106-.616 3.057 3.057 0 0 1-.742-1.036.456.456 0 0 1-.112-.266zm11.69-7.56c.028.168.037.49.028.966-.01.476-.019.812-.028 1.008L32.2 4.42l-.042 1.036-.028.49c.55-.047 1.069-.103 1.554-.168a.462.462 0 0 1 .364.105c.112.089.177.2.196.336a.473.473 0 0 1-.105.371.508.508 0 0 1-.343.196c-.513.056-1.073.112-1.68.168.01.905.089 1.657.238 2.254.196.793.49 1.19.882 1.19.196-.01.422-.1.679-.273.257-.173.511-.432.763-.777a.484.484 0 0 1 .336-.196.498.498 0 0 1 .378.098.484.484 0 0 1 .196.336.498.498 0 0 1-.098.378c-.719.943-1.46 1.423-2.226 1.442a1.51 1.51 0 0 1-1.183-.504c-.322-.345-.558-.826-.707-1.442-.159-.672-.247-1.475-.266-2.408l-.756.056a.51.51 0 0 1-.371-.119.468.468 0 0 1-.175-.343.51.51 0 0 1 .119-.371.468.468 0 0 1 .343-.175l.854-.07a237.47 237.47 0 0 0 .07-1.666l.056-1.008c.01-.187.019-.506.028-.959.01-.453 0-.758-.028-.917a.473.473 0 0 1 .126-.364.501.501 0 0 1 .35-.168c.14-.01.261.033.364.126.103.093.159.21.168.35zm5.32.014c-.047.588-.056 1.61-.028 3.066.019.97.028 1.69.028 2.156.42-.439.924-.7 1.512-.784.635-.084 1.157.098 1.568.546.308.336.532.812.672 1.428.14.588.21 1.526.21 2.814 0 .14-.049.259-.147.357a.486.486 0 0 1-.357.147.486.486 0 0 1-.357-.147.486.486 0 0 1-.147-.357c0-1.204-.06-2.067-.182-2.59-.103-.448-.247-.77-.434-.966-.168-.187-.397-.261-.686-.224-.205.028-.41.105-.616.231-.205.126-.36.273-.462.441-.233.364-.378.83-.434 1.4 0 .056-.01.18-.028.371-.019.191-.033.34-.042.448-.01.107-.03.245-.063.413a4.432 4.432 0 0 1-.119.476.308.308 0 0 1-.056.126c-.14.215-.336.28-.588.196a.4.4 0 0 1-.175-.105.897.897 0 0 1-.105-.119l-.028-.056a1.277 1.277 0 0 1-.035-.21 2.52 2.52 0 0 1-.007-.224v-.77c0-.607.019-1.237.056-1.89.037-.653.042-1.68.014-3.08-.028-1.447-.019-2.506.028-3.178a.468.468 0 0 1 .175-.343.51.51 0 0 1 .371-.119c.14.01.254.068.343.175a.51.51 0 0 1 .119.371zm6.104 7c1.13-.037 1.88-.27 2.254-.7a1.38 1.38 0 0 0 .329-.679c.042-.247.021-.45-.063-.609-.177-.392-.527-.527-1.05-.406-.616.14-1.05.439-1.302.896s-.308.957-.168 1.498zm-.882.546a3.453 3.453 0 0 1-.182-.924 3.143 3.143 0 0 1 .091-.952 2.78 2.78 0 0 1 .385-.875c.177-.266.422-.504.735-.714.313-.21.679-.362 1.099-.455.504-.121.952-.089 1.344.098.392.187.677.48.854.882.168.355.212.751.133 1.19a2.43 2.43 0 0 1-.567 1.176c-.513.579-1.344.915-2.492 1.008.243.252.523.425.84.518.644.187 1.367.005 2.17-.546a.494.494 0 0 1 .371-.077.473.473 0 0 1 .322.21.499.499 0 0 1-.133.707c-1.055.728-2.058.952-3.01.672a2.752 2.752 0 0 1-1.106-.616 3.057 3.057 0 0 1-.742-1.036.456.456 0 0 1-.112-.266zM58.324 4.49c-.065.99-.103 1.909-.112 2.758 0 .961.012 2.065.035 3.311.023 1.246.035 2.168.035 2.765 0 .14-.049.259-.147.357a.486.486 0 0 1-.357.147.486.486 0 0 1-.357-.147.486.486 0 0 1-.147-.357c0-.588-.01-1.435-.028-2.541a160.645 160.645 0 0 1-.028-2.345 3.345 3.345 0 0 1-1.456.616 2.686 2.686 0 0 1-1.414-.154c-.448-.177-.826-.49-1.134-.938-.299-.504-.439-.985-.42-1.442.019-.467.168-.91.448-1.33.252-.383.588-.7 1.008-.952a2.89 2.89 0 0 1 1.33-.42 3.47 3.47 0 0 1 1.806.378.457.457 0 0 1 .476-.252c.13.01.243.068.336.175a.495.495 0 0 1 .126.371zm-1.204.714a3.635 3.635 0 0 0-.735-.322c-.2-.056-.45-.075-.749-.056-.299.019-.59.112-.875.28a2 2 0 0 0-.679.644c-.383.57-.392 1.12-.028 1.652.364.541.882.76 1.554.658.308-.047.604-.161.889-.343.285-.182.511-.408.679-.679a.22.22 0 0 1 .042-.056c.01-.607.023-1.18.042-1.722a.44.44 0 0 1-.14-.056zm3.766.56a56.56 56.56 0 0 0-.084 1.239c-.01.173-.014.39-.014.651s.01.5.028.714c.093.933.392 1.48.896 1.638.261.075.476.042.644-.098.345-.299.579-.915.7-1.848.037-.224.07-.57.098-1.036l.042-.378a3.13 3.13 0 0 1 .028-.168.593.593 0 0 1 .168-.28c.177-.187.373-.22.588-.098a.503.503 0 0 1 .224.238c.019.047.037.098.056.154a11.683 11.683 0 0 1 .042.588c0 .084.002.175.007.273.005.098.007.175.007.231v.098c.037.728.07 1.143.098 1.246.056.243.247.546.574.91a.473.473 0 0 1 .126.364.501.501 0 0 1-.168.35.473.473 0 0 1-.364.126.501.501 0 0 1-.35-.168 5.24 5.24 0 0 1-.574-.77c-.168.392-.387.7-.658.924-.448.383-.97.48-1.568.294-.943-.28-1.484-1.11-1.624-2.492a9.909 9.909 0 0 1-.028-.784 15.273 15.273 0 0 1 .063-1.442 9.94 9.94 0 0 0 .035-.532.501.501 0 0 1 .168-.35.473.473 0 0 1 .364-.126c.14.01.257.065.35.168a.473.473 0 0 1 .126.364zm6.314.182c0 .523.021 1.309.063 2.359.042 1.05.063 1.836.063 2.359 0 .14-.049.259-.147.357a.486.486 0 0 1-.357.147.486.486 0 0 1-.357-.147.486.486 0 0 1-.147-.357c0-.523-.021-1.309-.063-2.359a64.647 64.647 0 0 1-.063-2.359c0-.14.049-.259.147-.357a.486.486 0 0 1 .357-.147c.14 0 .259.049.357.147a.486.486 0 0 1 .147.357zm-.154-2.59c0 .14-.049.259-.147.357a.486.486 0 0 1-.357.147.486.486 0 0 1-.357-.147.486.486 0 0 1-.147-.357c0-.14.049-.259.147-.357a.486.486 0 0 1 .357-.147c.14 0 .259.049.357.147a.486.486 0 0 1 .147.357zm1.568.77c.103.01.203.021.301.035l.231.035h.14c.047.01.091.016.133.021l.098.014a.815.815 0 0 0 .133.007h.63a.23.23 0 0 0 .056-.007l.105-.028.189-.049c.439-.084.737.042.896.378.047.112.06.247.042.406-.01.084-.028.187-.056.308-.056.177-.14.42-.252.728l-.77 1.862c-.308.775-.509 1.363-.602 1.764a4.15 4.15 0 0 0-.056.378c.27-.056.434-.084.49-.084l1.246-.042a.499.499 0 0 1 .511.49.474.474 0 0 1-.133.357.513.513 0 0 1-.35.161c-.093 0-.222.002-.385.007l-.448.014a9.134 9.134 0 0 0-.385.021c-.01 0-.126.023-.35.07-.261.047-.485.037-.672-.028-.317-.112-.495-.364-.532-.756-.019-.215.01-.485.084-.812.103-.448.317-1.087.644-1.918l.756-1.862c.065-.15.112-.27.14-.364-.065.01-.121.014-.168.014h-.252a7.9 7.9 0 0 1-1.022-.056 20.73 20.73 0 0 1-.504-.056.493.493 0 0 1-.336-.189.5.5 0 0 1-.105-.371.468.468 0 0 1 .182-.336.525.525 0 0 1 .371-.112z"/>
</svg>
