<?xml version="1.0" encoding="UTF-8"?>
<svg width="40px" height="20px" viewBox="0 0 40 20" version="1.1" xmlns="http://www.w3.org/2000/svg" xmlns:xlink="http://www.w3.org/1999/xlink">
    <!-- Generator: Sketch 47.1 (45422) - http://www.bohemiancoding.com/sketch -->
    <title>Group 13 Copy 7</title>
    <desc>Created with Sketch.</desc>
    <defs></defs>
    <g stroke="none" stroke-width="1" fill="none" fill-rule="evenodd" stroke-linecap="round" stroke-linejoin="round">
        <g transform="translate(-515.000000, -1099.000000)" stroke-width="2" stroke="#FFFFFF">
            <g transform="translate(431.000000, 1004.000000)">
                <g transform="translate(45.000000, 48.000000)">
                    <g transform="translate(60.028454, 51.205998) scale(1, -1) rotate(-2.000000) translate(-60.028454, -51.205998) translate(39.528454, 35.705998)">
                        <path d="M8.53033204,0.384568613 C29.6963563,7.35152911 27.8581122,33.0127857 27.9158867,30.0036063" transform="translate(18.232610, 15.316193) rotate(-64.000000) translate(-18.232610, -15.316193) "></path>
                        <path d="M32.5624599,4.38179646 C32.5624599,4.38179646 30.0359666,7.16216816 28.5046889,8.53723445 C26.9734112,9.91230075 20.7782802,14.9638277 20.7782802,14.9638277 C20.7782802,14.9638277 27.2637055,15.9010728 31.2222979,17.0292577 C35.1808903,18.1574427 37.493124,19.7274996 37.493124,19.7274996" transform="translate(29.135702, 12.054648) rotate(-154.000000) translate(-29.135702, -12.054648) "></path>
                    </g>
                </g>
            </g>
        </g>
    </g>
</svg>