<?xml version="1.0" encoding="UTF-8"?>
<svg width="42px" height="27px" viewBox="0 0 42 27" version="1.1" xmlns="http://www.w3.org/2000/svg" xmlns:xlink="http://www.w3.org/1999/xlink">
    <!-- Generator: Sketch 47.1 (45422) - http://www.bohemiancoding.com/sketch -->
    <title>Group 10</title>
    <desc>Created with Sketch.</desc>
    <defs></defs>
    <g stroke="none" stroke-width="1" fill="none" fill-rule="evenodd">
        <g transform="translate(-483.000000, -1062.000000)">
            <g transform="translate(431.000000, 1004.000000)">
                <g transform="translate(52.000000, 58.000000)">
                    <g transform="translate(0.211236, 0.199089)">
                        <g transform="translate(-0.000000, -0.000000)">
                            <g transform="translate(-0.000000, 0.000000)">
                                <path d="M1.175,0.09 C2.2750055,0.1900005 3.4949933,0.2599998 4.835,0.3 C6.1750067,0.3400002 7.23999605,0.36499995 8.03,0.375 C8.82000395,0.38500005 10.0949912,0.38500005 11.855,0.375 C13.6150088,0.36499995 14.7349976,0.36 15.215,0.36 C15.5150015,0.36 15.769999,0.46499895 15.98,0.675 C16.1900011,0.88500105 16.295,1.1399985 16.295,1.44 C16.295,1.7400015 16.1900011,1.99499895 15.98,2.205 C15.769999,2.41500105 15.5150015,2.52 15.215,2.52 C14.6949974,2.52 13.6950074,2.52499995 12.215,2.535 C10.7349926,2.54500005 9.595004,2.5400001 8.795,2.52 C8.8350002,4.6000104 8.7750008,7.4599818 8.615,11.1 C8.4349991,15.2200206 8.345,18.1099917 8.345,19.77 C8.345,20.0700015 8.24000105,20.324999 8.03,20.535 C7.81999895,20.7450011 7.5650015,20.85 7.265,20.85 C6.9649985,20.85 6.71000105,20.7450011 6.5,20.535 C6.28999895,20.324999 6.185,20.0700015 6.185,19.77 C6.185,18.0699915 6.2749991,15.1500207 6.455,11.01 C6.6150008,7.3499817 6.6750002,4.52001 6.635,2.52 C4.5349895,2.4799998 2.6550083,2.3900007 0.995,2.25 C0.6949985,2.2299999 0.45000095,2.10500115 0.26,1.875 C0.06999905,1.64499885 -0.0150001,1.3800015 0.005,1.08 C0.0250001,0.7799985 0.14999885,0.53500095 0.38,0.345 C0.61000115,0.15499905 0.8749985,0.0699999 1.175,0.09 Z M20.765,10.17 C20.765,11.2900056 20.8099996,12.9749888 20.9,15.225 C20.9900005,17.4750113 21.035,19.1599944 21.035,20.28 C21.035,20.5800015 20.9300011,20.834999 20.72,21.045 C20.509999,21.2550011 20.2550015,21.36 19.955,21.36 C19.6549985,21.36 19.4000011,21.2550011 19.19,21.045 C18.979999,20.834999 18.875,20.5800015 18.875,20.28 C18.875,19.1599944 18.8300005,17.4750113 18.74,15.225 C18.6499996,12.9749888 18.605,11.2900056 18.605,10.17 C18.605,9.8699985 18.709999,9.61500105 18.92,9.405 C19.1300011,9.19499895 19.3849985,9.09 19.685,9.09 C19.9850015,9.09 20.239999,9.19499895 20.45,9.405 C20.6600011,9.61500105 20.765,9.8699985 20.765,10.17 Z M20.435,4.62 C20.435,4.9200015 20.3300011,5.17499895 20.12,5.385 C19.909999,5.59500105 19.6550015,5.7 19.355,5.7 C19.0549985,5.7 18.8000011,5.59500105 18.59,5.385 C18.379999,5.17499895 18.275,4.9200015 18.275,4.62 C18.275,4.3199985 18.379999,4.06500105 18.59,3.855 C18.8000011,3.64499895 19.0549985,3.54 19.355,3.54 C19.6550015,3.54 19.909999,3.64499895 20.12,3.855 C20.3300011,4.06500105 20.435,4.3199985 20.435,4.62 Z M25.925,7.8 C25.9450001,9.2800074 25.9849997,11.01999 26.045,13.02 C27.5450075,13.2800013 28.7849951,13.1800023 29.765,12.72 C31.0850066,12.0999969 31.9849976,11.390004 32.465,10.59 C32.9450024,9.789996 33.0950009,9.0800031 32.915,8.46 C32.7349991,7.859997 32.2400041,7.3900017 31.43,7.05 C30.619996,6.7099983 29.515007,6.6899985 28.115,6.99 C27.1549952,7.2100011 26.4250025,7.4799984 25.925,7.8 Z M24.575,6.12 C25.3350038,5.5799973 26.3549936,5.1700014 27.635,4.89 C29.4550091,4.489998 31.0399933,4.5599973 32.39,5.1 C33.7400068,5.6400027 34.6049981,6.5499936 34.985,7.83 C35.3650019,9.0900063 35.1650039,10.3499937 34.385,11.61 C33.6049961,12.8700063 32.3650085,13.899996 30.665,14.7 C29.3649935,15.300003 27.8650085,15.4800012 26.165,15.24 C26.365001,19.9000233 26.465,23.2099902 26.465,25.17 C26.465,25.4700015 26.3600011,25.724999 26.15,25.935 C25.939999,26.1450011 25.6850015,26.25 25.385,26.25 C25.0849985,26.25 24.8300011,26.1450011 24.62,25.935 C24.409999,25.724999 24.305,25.4700015 24.305,25.17 C24.305,23.1899901 24.2200009,20.3550185 24.05,16.665 C23.8799992,12.9749816 23.7850001,10.3200081 23.765,8.7 C23.7049997,8.6599998 23.6550002,8.6100003 23.615,8.55 C23.3949989,8.349999 23.2750001,8.1000015 23.255,7.8 C23.2349999,7.4999985 23.3349989,7.250001 23.555,7.05 C23.6550005,6.9299994 23.7649994,6.8100006 23.885,6.69 C24.0250007,6.3899985 24.2549984,6.2000004 24.575,6.12 Z M40.145,3.96 L40.205,5.22 C40.2250001,5.6400021 40.24,6.02499825 40.25,6.375 C40.2600001,6.72500175 40.2600001,7.1499975 40.25,7.65 C40.24,8.1500025 40.2250001,8.5399986 40.205,8.82 L40.175,10.08 C40.1549999,10.6400028 40.1400001,11.0299989 40.13,11.25 C40.12,11.4700011 40.0950002,11.884997 40.055,12.495 C40.0149998,13.1050031 39.995,13.4899992 39.995,13.65 C39.9749999,13.9500015 39.8550011,14.199999 39.635,14.4 C39.4149989,14.600001 39.1550015,14.6900001 38.855,14.67 C38.5549985,14.6499999 38.305001,14.5300011 38.105,14.31 C37.904999,14.0899989 37.8149999,13.8300015 37.835,13.53 C37.835,13.3699992 37.8549998,12.9800031 37.895,12.36 C37.9350002,11.7399969 37.96,11.330001 37.97,11.13 C37.9800001,10.929999 37.9949999,10.5500028 38.015,9.99 L38.045,8.76 C38.0650001,8.4999987 38.08,8.12500245 38.09,7.635 C38.1000001,7.14499755 38.1000001,6.73500165 38.09,6.405 C38.08,6.07499835 38.0650001,5.70500205 38.045,5.295 C38.0249999,4.88499795 38.0050001,4.5000018 37.985,4.14 C37.9649999,3.8399985 38.0499991,3.57500115 38.24,3.345 C38.430001,3.11499885 38.6749985,2.9900001 38.975,2.97 C39.2750015,2.9499999 39.5399989,3.03499905 39.77,3.225 C40.0000012,3.41500095 40.1249999,3.6599985 40.145,3.96 Z M39.725,18.21 C39.725,18.5100015 39.6200011,18.764999 39.41,18.975 C39.199999,19.1850011 38.9450015,19.29 38.645,19.29 C38.3449985,19.29 38.0900011,19.1850011 37.88,18.975 C37.669999,18.764999 37.565,18.5100015 37.565,18.21 C37.565,17.9099985 37.669999,17.6550011 37.88,17.445 C38.0900011,17.234999 38.3449985,17.13 38.645,17.13 C38.9450015,17.13 39.199999,17.234999 39.41,17.445 C39.6200011,17.6550011 39.725,17.9099985 39.725,18.21 Z" fill="#FFFFFF"></path>
                                <path d="M2.33432364,22.3075596 C2.33432364,22.3075596 11.3071378,24.7860491 20.2482139,23.6334166 C30.5330081,22.3075596 32.0607588,23.6568541 41.7043226,24.0526222" stroke="#FFFFFF" stroke-width="2" transform="translate(22.019323, 23.180091) scale(1, -1) translate(-22.019323, -23.180091) "></path>
                            </g>
                        </g>
                    </g>
                </g>
            </g>
        </g>
    </g>
</svg>