<svg xmlns="http://www.w3.org/2000/svg" width="80" height="14" viewBox="0 0 80 14">
    <path fill="#D4C5FF" fill-rule="evenodd" d="M.854 4.812c.653-.588 1.33-.947 2.03-1.078.476-.093.891-.047 1.246.14.42.205.719.574.896 1.106.159.476.08 1.069-.238 1.778-.224.495-.57 1.073-1.036 1.736-.215.299-.56.751-1.036 1.358.168-.01.383-.023.644-.042 1.381-.075 2.119-.112 2.212-.112.14 0 .259.049.357.147a.486.486 0 0 1 .147.357c0 .14-.049.259-.147.357a.486.486 0 0 1-.357.147c-.075 0-.793.037-2.156.112a23.13 23.13 0 0 1-1.134.042c-.168 0-.303-.005-.406-.014a1.026 1.026 0 0 1-.196-.042.55.55 0 0 1-.378-.378.498.498 0 0 1 .014-.308.44.44 0 0 1 .056-.14c.028-.056.07-.121.126-.196.075-.103.2-.266.378-.49l1.05-1.386c.439-.607.751-1.125.938-1.554.215-.476.285-.821.21-1.036-.093-.28-.224-.462-.392-.546-.159-.075-.36-.089-.602-.042-.523.093-1.04.373-1.554.84a.473.473 0 0 1-.364.126.501.501 0 0 1-.35-.168.473.473 0 0 1-.126-.364.501.501 0 0 1 .168-.35zm7.42 5.6c0 .14-.049.259-.147.357a.486.486 0 0 1-.357.147.486.486 0 0 1-.357-.147.486.486 0 0 1-.147-.357c0-.14.049-.259.147-.357a.486.486 0 0 1 .357-.147c.14 0 .259.049.357.147a.486.486 0 0 1 .147.357zm5.796-8.428a138.97 138.97 0 0 1 2.492 5.74l.028.07.028.028.042.084a.813.813 0 0 1 .07.168l.07.182.028.084c.01.01.014.023.014.042.01.019.014.037.014.056v.042l.224.588c.037-.159.145-.644.322-1.456.13-.607.294-1.227.49-1.862s.455-1.405.777-2.31.53-1.498.623-1.778c.047-.14.13-.24.252-.301a.48.48 0 0 1 .385-.021c.135.047.233.13.294.252.06.121.068.247.021.378-.103.317-.313.922-.63 1.813-.317.891-.57 1.643-.756 2.254a23.968 23.968 0 0 0-.476 1.799c-.168.803-.28 1.307-.336 1.512-.093.364-.173.663-.238.896-.047.14-.093.257-.14.35a.854.854 0 0 1-.238.35.57.57 0 0 1-.434.126.51.51 0 0 1-.392-.252 1.173 1.173 0 0 1-.112-.322 3.583 3.583 0 0 1-.021-.14.743.743 0 0 1-.007-.084v-.028c0-.01-.005-.014-.014-.014l-.14-.378-.168-.392-.336-.952-.168-.392a149.705 149.705 0 0 0-2.492-5.712.483.483 0 0 1-.014-.378.49.49 0 0 1 .259-.287.481.481 0 0 1 .385-.021c.13.047.229.135.294.266zm8.288 3.962c0 .523.021 1.309.063 2.359.042 1.05.063 1.836.063 2.359 0 .14-.049.259-.147.357a.486.486 0 0 1-.357.147.486.486 0 0 1-.357-.147.486.486 0 0 1-.147-.357c0-.523-.021-1.309-.063-2.359a64.648 64.648 0 0 1-.063-2.359c0-.14.049-.259.147-.357a.486.486 0 0 1 .357-.147c.14 0 .259.049.357.147a.486.486 0 0 1 .147.357zm-.154-2.59c0 .14-.049.259-.147.357a.486.486 0 0 1-.357.147.486.486 0 0 1-.357-.147.486.486 0 0 1-.147-.357c0-.14.049-.259.147-.357a.486.486 0 0 1 .357-.147c.14 0 .259.049.357.147a.486.486 0 0 1 .147.357zm2.422 5.082c1.13-.037 1.88-.27 2.254-.7a1.38 1.38 0 0 0 .329-.679c.042-.247.021-.45-.063-.609-.177-.392-.527-.527-1.05-.406-.616.14-1.05.439-1.302.896s-.308.957-.168 1.498zm-.882.546a3.453 3.453 0 0 1-.182-.924 3.143 3.143 0 0 1 .091-.952 2.78 2.78 0 0 1 .385-.875c.177-.266.422-.504.735-.714.313-.21.679-.362 1.099-.455.504-.121.952-.089 1.344.098.392.187.677.48.854.882.168.355.212.751.133 1.19a2.43 2.43 0 0 1-.567 1.176c-.513.579-1.344.915-2.492 1.008.243.252.523.425.84.518.644.187 1.367.005 2.17-.546a.494.494 0 0 1 .371-.077.473.473 0 0 1 .322.21.499.499 0 0 1-.133.707c-1.055.728-2.058.952-3.01.672a2.752 2.752 0 0 1-1.106-.616 3.057 3.057 0 0 1-.742-1.036.456.456 0 0 1-.112-.266zm8.848-2.674c-.01.028 0 .047.028.056l-.028-.056zm-2.058-1.792c.084.355.285 1.04.602 2.058.233.737.401 1.297.504 1.68l.112-.392c.187-.69.322-1.176.406-1.456.075-.224.14-.401.196-.532l.126-.224c.121-.159.266-.243.434-.252.075 0 .145.01.21.028a.325.325 0 0 1 .14.07l.042.042a.459.459 0 0 1 .056.07c.01.01.019.023.028.042l.028.028.014.056.07.154.238.518.714 1.568.714 1.54c.019-.065.037-.15.056-.252.056-.392.098-.644.126-.756a36.021 36.021 0 0 1 1.288-3.612.44.44 0 0 1 .266-.273.518.518 0 0 1 .392 0c.13.051.222.142.273.273a.498.498 0 0 1-.007.392 32 32 0 0 0-1.232 3.5c-.028.075-.065.285-.112.63a2.914 2.914 0 0 1-.238.812 8.1 8.1 0 0 1-.196.378c-.187.27-.42.397-.7.378a.509.509 0 0 1-.308-.126.556.556 0 0 1-.07-.084.818.818 0 0 1-.07-.084 2.272 2.272 0 0 0-.098-.168l-.266-.546-.728-1.582-.56-1.218-.266.952a28.15 28.15 0 0 1-.406 1.442 3.914 3.914 0 0 1-.182.518.893.893 0 0 1-.126.21c-.14.196-.317.28-.532.252a.54.54 0 0 1-.308-.154.736.736 0 0 1-.07-.112l-.056-.112a1.453 1.453 0 0 1-.056-.182 12.332 12.332 0 0 1-.21-1.05c-.084-.364-.285-1.05-.602-2.058-.299-.943-.504-1.657-.616-2.142a.517.517 0 0 1 .063-.378.446.446 0 0 1 .308-.224.531.531 0 0 1 .385.063c.121.07.196.175.224.315zM43.89 6.814c.233-.457.5-.845.798-1.162.737-.793 1.503-1.031 2.296-.714.159.056.327.159.504.308l.126.119c.075.07.135.119.182.147a.484.484 0 0 1 .196.336.498.498 0 0 1-.098.378.484.484 0 0 1-.336.196.498.498 0 0 1-.378-.098 34.06 34.06 0 0 0-.35-.308 1.054 1.054 0 0 0-.21-.154c-.364-.14-.76.019-1.19.476-.401.43-.7.929-.896 1.498a4.929 4.929 0 0 0-.224.987c-.01.098-.016.282-.021.553a14.9 14.9 0 0 1-.021.63c0 .019.002.044.007.077s.01.082.014.147c.005.065.007.13.007.196.01.15.005.266-.014.35-.065.233-.21.364-.434.392a.529.529 0 0 1-.476-.168c-.196-.187-.266-.443-.21-.77a2.735 2.735 0 0 1 .056-.238V9.95a8.163 8.163 0 0 0-.056-.882 36.356 36.356 0 0 0-.336-2.464 12.51 12.51 0 0 0-.518-1.974.481.481 0 0 1 .021-.385.49.49 0 0 1 .287-.259.481.481 0 0 1 .385.021.49.49 0 0 1 .259.287c.261.737.471 1.577.63 2.52zm6.244 1.624c1.13-.037 1.88-.27 2.254-.7a1.38 1.38 0 0 0 .329-.679c.042-.247.021-.45-.063-.609-.177-.392-.527-.527-1.05-.406-.616.14-1.05.439-1.302.896s-.308.957-.168 1.498zm-.882.546a3.453 3.453 0 0 1-.182-.924 3.143 3.143 0 0 1 .091-.952 2.78 2.78 0 0 1 .385-.875c.177-.266.422-.504.735-.714.313-.21.679-.362 1.099-.455.504-.121.952-.089 1.344.098.392.187.677.48.854.882.168.355.212.751.133 1.19a2.43 2.43 0 0 1-.567 1.176c-.513.579-1.344.915-2.492 1.008.243.252.523.425.84.518.644.187 1.367.005 2.17-.546a.494.494 0 0 1 .371-.077.473.473 0 0 1 .322.21.499.499 0 0 1-.133.707c-1.055.728-2.058.952-3.01.672a2.752 2.752 0 0 1-1.106-.616 3.057 3.057 0 0 1-.742-1.036.456.456 0 0 1-.112-.266zm7.476-4.144c.01.69.028 1.503.056 2.436.7.121 1.279.075 1.736-.14.616-.29 1.036-.62 1.26-.994.224-.373.294-.705.21-.994-.084-.28-.315-.5-.693-.658-.378-.159-.894-.168-1.547-.028-.448.103-.789.229-1.022.378zm-.63-.784c.355-.252.83-.443 1.428-.574.85-.187 1.589-.154 2.219.098.63.252 1.034.677 1.211 1.274.177.588.084 1.176-.28 1.764-.364.588-.943 1.069-1.736 1.442-.607.28-1.307.364-2.1.252.093 2.175.14 3.72.14 4.634 0 .14-.049.259-.147.357a.486.486 0 0 1-.357.147.486.486 0 0 1-.357-.147.486.486 0 0 1-.147-.357c0-.924-.04-2.247-.119-3.969a125.26 125.26 0 0 1-.133-3.717.25.25 0 0 1-.07-.07.501.501 0 0 1-.168-.35.413.413 0 0 1 .14-.35c.047-.056.098-.112.154-.168a.463.463 0 0 1 .322-.266zm7.168 1.246a.473.473 0 0 1 .35-.42c.27-.084.485-.145.644-.182.159-.037.38-.058.665-.063.285-.005.548.035.791.119.57.224 1.001.6 1.295 1.127.294.527.432 1.099.413 1.715a3.363 3.363 0 0 1-.532 1.722 2.817 2.817 0 0 1-1.428 1.148c-.877.327-1.633.285-2.268-.126-.55-.364-.905-.929-1.064-1.694a3.765 3.765 0 0 1 .119-1.827c.191-.62.53-1.127 1.015-1.519zm1.022.546c-.457.215-.793.574-1.008 1.078a2.608 2.608 0 0 0-.154 1.526c.093.485.303.83.63 1.036.345.233.793.243 1.344.028.41-.15.728-.401.952-.756a2.4 2.4 0 0 0 .364-1.204 2.123 2.123 0 0 0-.259-1.155 1.46 1.46 0 0 0-.805-.693c-.233-.093-.523-.103-.868-.028a.432.432 0 0 1-.196.168zm5.222.966c.233-.457.5-.845.798-1.162.737-.793 1.503-1.031 2.296-.714.159.056.327.159.504.308l.126.119c.075.07.135.119.182.147a.484.484 0 0 1 .196.336.498.498 0 0 1-.098.378.484.484 0 0 1-.336.196.498.498 0 0 1-.378-.098 34.06 34.06 0 0 0-.35-.308 1.054 1.054 0 0 0-.21-.154c-.364-.14-.76.019-1.19.476-.401.43-.7.929-.896 1.498a4.929 4.929 0 0 0-.224.987c-.01.098-.016.282-.021.553a14.9 14.9 0 0 1-.021.63c0 .019.002.044.007.077s.01.082.014.147c.005.065.007.13.007.196.01.15.005.266-.014.35-.065.233-.21.364-.434.392a.529.529 0 0 1-.476-.168c-.196-.187-.266-.443-.21-.77a2.735 2.735 0 0 1 .056-.238V9.95a8.163 8.163 0 0 0-.056-.882 36.356 36.356 0 0 0-.336-2.464 12.51 12.51 0 0 0-.518-1.974.481.481 0 0 1 .021-.385.49.49 0 0 1 .287-.259.481.481 0 0 1 .385.021.49.49 0 0 1 .259.287c.261.737.471 1.577.63 2.52zm6.398-5.39c.028.168.037.49.028.966-.01.476-.019.812-.028 1.008l-.056 1.022-.042 1.036-.028.49c.55-.047 1.069-.103 1.554-.168a.462.462 0 0 1 .364.105c.112.089.177.2.196.336a.473.473 0 0 1-.105.371.508.508 0 0 1-.343.196c-.513.056-1.073.112-1.68.168.01.905.089 1.657.238 2.254.196.793.49 1.19.882 1.19.196-.01.422-.1.679-.273.257-.173.511-.432.763-.777a.484.484 0 0 1 .336-.196.498.498 0 0 1 .378.098.484.484 0 0 1 .196.336.498.498 0 0 1-.098.378c-.719.943-1.46 1.423-2.226 1.442a1.51 1.51 0 0 1-1.183-.504c-.322-.345-.558-.826-.707-1.442-.159-.672-.247-1.475-.266-2.408l-.756.056a.51.51 0 0 1-.371-.119.468.468 0 0 1-.175-.343.51.51 0 0 1 .119-.371.468.468 0 0 1 .343-.175l.854-.07a237.565 237.565 0 0 0 .07-1.666l.056-1.008c.01-.187.019-.506.028-.959.01-.453 0-.758-.028-.917a.473.473 0 0 1 .126-.364.501.501 0 0 1 .35-.168c.14-.01.261.033.364.126.103.093.159.21.168.35z"/>
</svg>
